<?xml version="1.0" encoding="utf-8"?>
<!-- Generator: Adobe Illustrator 19.2.1, SVG Export Plug-In . SVG Version: 6.00 Build 0)  -->
<svg version="1.1" id="Calque_1" xmlns="http://www.w3.org/2000/svg" xmlns:xlink="http://www.w3.org/1999/xlink" x="0px" y="0px"
	 viewBox="0 0 1000 1000" style="enable-background:new 0 0 1000 1000;" xml:space="preserve">
<style type="text/css">
	.st0{fill:#1D1D1B;}
</style>
<path class="st0" d="M599.7,200V0H466.3v66.7h-66.7V0H266.3v66.7h-100c-50,0-100,50-100,100v200c0,50,50,100,100,100l100,0V600h-200
	v200h133.3v-66.7h66.7V800h133.3v-66.7h100c50,0,100-50,100-100v-200c0-50-50-100-100-100h-100V200H599.7z M466.3,466.7V600h-66.7
	V466.7H466.3z M266.3,333.3h-66.7V200h66.7V333.3z"/>
</svg>
