<?xml version="1.0" encoding="utf-8"?>
<!-- Generator: Adobe Illustrator 19.2.1, SVG Export Plug-In . SVG Version: 6.00 Build 0)  -->
<svg version="1.1" id="Calque_1" xmlns="http://www.w3.org/2000/svg" xmlns:xlink="http://www.w3.org/1999/xlink" x="0px" y="0px"
	 viewBox="0 0 1000 1000" style="enable-background:new 0 0 1000 1000;" xml:space="preserve">
<style type="text/css">
	.st0{fill:#1D1D1B;stroke:#1D1D1B;stroke-width:0.5;stroke-miterlimit:10;}
</style>
<path class="st0" d="M499.6,0H166.3c-50,0-100,50-100,100v600c0,50,50,100,100,100h333.3c50,0,100-50,100-100V100
	C599.7,50,549.6,0,499.6,0z M199.6,366.7l38.1,33.3l-38.1,33.3V366.7z M466.3,666.7H199.6V600L333,483.3L466.3,600V666.7z
	 M428.2,400l38.1-33.3v66.6L428.2,400z M466.3,200L333,316.7L199.6,200v-66.7h266.7L466.3,200z"/>
</svg>
