<?xml version="1.0" encoding="utf-8"?>
<!-- Generator: Adobe Illustrator 19.2.1, SVG Export Plug-In . SVG Version: 6.00 Build 0)  -->
<svg version="1.1" id="Calque_1" xmlns="http://www.w3.org/2000/svg" xmlns:xlink="http://www.w3.org/1999/xlink" x="0px" y="0px"
	 viewBox="0 0 1000 1000" style="enable-background:new 0 0 1000 1000;" xml:space="preserve">
<style type="text/css">
	.st0{fill:#1D1D1B;stroke:#1D1D1B;stroke-width:0.5;stroke-miterlimit:10;}
</style>
<path class="st0" d="M499.8,0H166.1c-49.9,0.1-99.8,50.1-99.8,100v366.7c0,33.3,33.3,66.7,66.7,66.7c-33.3,0-66.7,33.3-66.7,66.7
	v100c0,49.9,49.9,99.8,99.8,100h333.6c50,0,99.9-50,99.9-100V600c0-33.3-33.3-66.7-66.7-66.7c33.3,0,66.7-33.3,66.7-66.7V100
	C599.7,50,549.7,0.1,499.8,0z M466.2,666.7H199.7V600h266.5V666.7z M466.3,466.7H199.7V133.3h266.7v333.4H466.3z"/>
</svg>
