<?xml version="1.0" encoding="utf-8"?>
<!-- Generator: Adobe Illustrator 19.2.1, SVG Export Plug-In . SVG Version: 6.00 Build 0)  -->
<svg version="1.1" id="Calque_1" xmlns="http://www.w3.org/2000/svg" xmlns:xlink="http://www.w3.org/1999/xlink" x="0px" y="0px"
	 viewBox="0 0 1000 1000" style="enable-background:new 0 0 1000 1000;" xml:space="preserve">
<style type="text/css">
	.st0{fill:#1D1D1B;stroke:#1D1D1B;stroke-width:0.5;stroke-miterlimit:10;}
</style>
<path class="st0" d="M599.6,666.7H555L532.8,600h66.9V466.7H488.2l-44.6-133.3h156.1V200H366.3c33.3,0,66.7-33.3,66.7-66.7V66.7
	C433,33.3,399.6,0,366.3,0h-66.7C266.3,0,233,33.3,233,66.7v66.7c0,33.3,33.3,66.7,66.7,66.7H66.3v133.3h156.1l-44.6,133.3H66.3V600
	h66.9l-22.3,66.7H66.3V800h200V666.7h-22.1l22.3-66.7h132.9l22.3,66.7h-22.1V800h200V666.7z M299.6,66.7h66.7v66.7h-66.7L299.6,66.7
	z M311.1,466.7l21.9-65.4l21.9,65.4H311.1z"/>
</svg>
