<?xml version="1.0" encoding="utf-8"?>
<!-- Generator: Adobe Illustrator 19.2.1, SVG Export Plug-In . SVG Version: 6.00 Build 0)  -->
<svg version="1.1" id="Calque_1" xmlns="http://www.w3.org/2000/svg" xmlns:xlink="http://www.w3.org/1999/xlink" x="0px" y="0px"
	 viewBox="0 0 1000 1000" style="enable-background:new 0 0 1000 1000;" xml:space="preserve">
<style type="text/css">
	.st0{fill:#1D1D1B;}
</style>
<path class="st0" d="M599.8,200V100c0-50-50-100-100-100L266.5,0c-50,0-100,50-100,100c-50,0-100,49.8-100,99.8v133.6
	c0,50,50,100,100,100c0,50,49.8,100,99.8,100h0.2v133.3h133.3l0,66.7H266.5V800h200c33.3,0,66.7-33.3,66.7-66.7l0-66.7
	c0-33.3-33.3-66.7-66.7-66.7h-66.7l0-66.7h100c49.9,0,99.8-50.1,100-100l0-100H466.5V400H299.6c0-50-50-100-100-100l0.2-66.9
	c50,0,100-49.8,100-99.8h166.7V200H599.8z"/>
</svg>
