<?xml version="1.0" encoding="utf-8"?>
<!-- Generator: Adobe Illustrator 19.2.1, SVG Export Plug-In . SVG Version: 6.00 Build 0)  -->
<svg version="1.1" id="Calque_1" xmlns="http://www.w3.org/2000/svg" xmlns:xlink="http://www.w3.org/1999/xlink" x="0px" y="0px"
	 viewBox="0 0 1000 1000" style="enable-background:new 0 0 1000 1000;" xml:space="preserve">
<style type="text/css">
	.st0{fill:#1D1D1B;}
</style>
<path class="st0" d="M599.7,232.4c0-50-50-100-100-100h-33.3V100c0-50-50-100-100-100H199.6L66.3,0v800l300,0c50,0,100-50,100-100
	v-32.4h33.3c50,0,100-50,100-100V232.4z M466.3,534.3H433c-50,0-100,50-100,100v32.4H199.6V133.3H333v32.4c0,50,50,100,100,100h33.3
	V534.3z"/>
</svg>
