<?xml version="1.0" encoding="utf-8"?>
<!-- Generator: Adobe Illustrator 19.2.1, SVG Export Plug-In . SVG Version: 6.00 Build 0)  -->
<svg version="1.1" id="Calque_1" xmlns="http://www.w3.org/2000/svg" xmlns:xlink="http://www.w3.org/1999/xlink" x="0px" y="0px"
	 viewBox="0 0 1000 1000" style="enable-background:new 0 0 1000 1000;" xml:space="preserve">
<style type="text/css">
	.st0{fill:#1D1D1B;}
</style>
<polygon class="st0" points="266.4,0 66.4,0 66.4,133.3 133,133.3 133,333.3 66.4,333.3 66.4,466.7 133,466.7 133,666.7 66.4,666.7 
	66.4,800 599.7,800 599.7,798.6 599.7,598.6 466.4,598.6 466.4,666.7 266.4,666.7 266.4,466.7 333,466.7 333,533.3 466.4,533.3 
	466.4,266.7 333,266.7 333,333.3 266.4,333.3 266.4,133.3 466.4,133.3 466.4,200 599.7,200 599.7,0 "/>
</svg>
