<?xml version="1.0" encoding="utf-8"?>
<!-- Generator: Adobe Illustrator 19.2.1, SVG Export Plug-In . SVG Version: 6.00 Build 0)  -->
<svg version="1.1" id="Calque_1" xmlns="http://www.w3.org/2000/svg" xmlns:xlink="http://www.w3.org/1999/xlink" x="0px" y="0px"
	 viewBox="0 0 1000 1000" style="enable-background:new 0 0 1000 1000;" xml:space="preserve">
<style type="text/css">
	.st0{fill:#1D1D1B;stroke:#1D1D1B;stroke-miterlimit:10;}
	.st1{fill:#1D1D1B;}
</style>
<g>
	<rect x="66.4" class="st0" width="133.3" height="133.3"/>
	<rect x="466.4" class="st0" width="133.3" height="133.3"/>
	<polygon class="st1" points="66.4,200 66.4,333.3 133.2,333.3 133.2,433.7 66.4,433.7 66.4,567 133.2,567 133.2,666.7 66.4,666.7 
		66.4,800 599.7,800 599.7,666.7 599.7,600 466.4,600 466.4,666.7 266.5,666.7 266.5,567 399.7,567 399.7,433.7 266.5,433.7 
		266.5,333.3 466.4,333.3 466.4,400 599.7,400 599.7,333.3 599.7,200 	"/>
</g>
</svg>
