<?xml version="1.0" encoding="utf-8"?>
<!-- Generator: Adobe Illustrator 19.2.1, SVG Export Plug-In . SVG Version: 6.00 Build 0)  -->
<svg version="1.1" id="Calque_1" xmlns="http://www.w3.org/2000/svg" xmlns:xlink="http://www.w3.org/1999/xlink" x="0px" y="0px"
	 viewBox="0 0 1000 1000" style="enable-background:new 0 0 1000 1000;" xml:space="preserve">
<style type="text/css">
	.st0{fill:#1D1D1B;}
</style>
<path class="st0" d="M366.4,266.6h133.3c50,0,100-50,100-100V0H466.4v133.3h-66.7V100c0-50-50-100-100-100H166.4
	c-50,0-100,50-100,100v600c0,50,50,100,100,100h133.3c50,0,100-50,100-100v-33.3h66.7V800h133.3V633.4c0-50-50-100-100-100H366.4
	c-50,0-100,50-100,100v33.3h-66.5V466.6h399.8V333.3H199.9v-200h66.5v33.3C266.4,216.6,316.4,266.6,366.4,266.6z"/>
</svg>
