<?xml version="1.0" encoding="utf-8"?>
<!-- Generator: Adobe Illustrator 19.2.1, SVG Export Plug-In . SVG Version: 6.00 Build 0)  -->
<svg version="1.1" id="Calque_1" xmlns="http://www.w3.org/2000/svg" xmlns:xlink="http://www.w3.org/1999/xlink" x="0px" y="0px"
	 viewBox="0 0 1000 1000" style="enable-background:new 0 0 1000 1000;" xml:space="preserve">
<style type="text/css">
	.st0{fill:#1D1D1B;}
</style>
<g>
	<path class="st0" d="M499.7,233.3c0-50-49.8-100-99.8-100H266.3c-50,0-100,50-100,100c-50,0-100,49.8-100,99.8v133.6
		c0,50,50,100,100,100c0,50,49.8,100,99.8,100h133.6c50,0,100-50,100-100c50,0,100-49.8,100-99.8V333.3
		C599.7,283.3,549.7,233.3,499.7,233.3z M466.4,433.6c-50,0-100,50-100,100l-66.9-0.2c0-50-50-100-100-100l0.2-66.9
		c50,0,100-50,100-100l66.9,0.2c0,50,50,100,100,100L466.4,433.6z"/>
	<path class="st0" d="M333.1,333.3c-33.3,0-66.7,33.3-66.7,66.7s33.3,66.7,66.7,66.7s66.7-33.3,66.7-66.7S366.4,333.3,333.1,333.3z"
		/>
</g>
</svg>
