<?xml version="1.0" encoding="utf-8"?>
<!-- Generator: Adobe Illustrator 19.2.1, SVG Export Plug-In . SVG Version: 6.00 Build 0)  -->
<svg version="1.1" id="Calque_1" xmlns="http://www.w3.org/2000/svg" xmlns:xlink="http://www.w3.org/1999/xlink" x="0px" y="0px"
	 viewBox="0 0 1000 1000" style="enable-background:new 0 0 1000 1000;" xml:space="preserve">
<style type="text/css">
	.st0{fill:#1D1D1B;}
</style>
<g>
	<path class="st0" d="M499.7,332.9v-32.4c0-50-50-100-100-100H266.4c-50,0-100,50-100,100v32.4c-50,0-100,50-100,100v134.7
		c0,50,50,100,100,100V700c0,50,50,100,100,100h133.3c50,0,100-50,100-100v-32.4c50,0,100-50,100-100V432.9
		C599.7,382.9,549.7,332.9,499.7,332.9z M466.4,534.3c-50,0-100,50-100,100v32.4h-66.7v-32.4c0-50-50-100-100-100v-68.1
		c50,0,100-50,100-100v-32.4h66.7v32.4c0,50,50,100,100,100V534.3z"/>
	<rect x="66.4" class="st0" width="133.3" height="133.3"/>
	<rect x="466.4" class="st0" width="133.3" height="133.3"/>
</g>
</svg>
