<?xml version="1.0" encoding="utf-8"?>
<!-- Generator: Adobe Illustrator 19.2.1, SVG Export Plug-In . SVG Version: 6.00 Build 0)  -->
<svg version="1.1" id="Calque_1" xmlns="http://www.w3.org/2000/svg" xmlns:xlink="http://www.w3.org/1999/xlink" x="0px" y="0px"
	 viewBox="0 0 1000 1000" style="enable-background:new 0 0 1000 1000;" xml:space="preserve">
<path d="M589.2,352.2c-113.3-293.3,0,0-113.3-293.3C460.4,19,423.1,0,386.9,0H279.2c-36.1,0-73.5,19-88.9,58.9
	c-113.4,293.3,0,0-113.4,293.3c-8.3,21.5-10,30.6-10.6,47.8c0.6,17.2,2.3,26.3,10.6,47.8c113.3,293.3,0,0,113.3,293.3
	c15.4,39.8,52.8,58.9,88.9,58.9h107.8c36.1,0,73.5-19,88.9-58.9c113.3-293.3,0,0,113.3-293.3c8.3-21.5,10-30.6,10.6-47.8
	C599.2,382.8,597.5,373.7,589.2,352.2z M366.4,666.7h-66.7L199.7,400l100-266.7h66.7l100,266.7L366.4,666.7z"/>
</svg>
