<?xml version="1.0" encoding="utf-8"?>
<!-- Generator: Adobe Illustrator 19.2.1, SVG Export Plug-In . SVG Version: 6.00 Build 0)  -->
<svg version="1.1" id="Calque_1" xmlns="http://www.w3.org/2000/svg" xmlns:xlink="http://www.w3.org/1999/xlink" x="0px" y="0px"
	 viewBox="0 0 1000 1000" style="enable-background:new 0 0 1000 1000;" xml:space="preserve">
<style type="text/css">
	.st0{fill:#1D1D1B;}
</style>
<path class="st0" d="M499.6,132.4V100c0-50-50-100-100-100L333,0l-66.7,0c-50,0-100,50-100,100v32.4c-50,0-100,50-100,100v335.2
	c0,50,50,100,100,100V700c0,50,50,100,100,100l66.7,0l66.7,0c50,0,100-50,100-100v-32.4c50,0,100-50,100-100V232.4
	C599.7,182.4,549.6,132.4,499.6,132.4z M466.3,534.3c-50,0-100,50-100,100v32.4h-66.7v-32.4c0-50-50-100-100-100V265.7
	c50,0,100-50,100-100v-32.4h66.7v32.4c0,50,50,100,100,100V534.3z"/>
</svg>
