<?xml version="1.0" encoding="utf-8"?>
<!-- Generator: Adobe Illustrator 19.2.1, SVG Export Plug-In . SVG Version: 6.00 Build 0)  -->
<svg version="1.1" id="Calque_1" xmlns="http://www.w3.org/2000/svg" xmlns:xlink="http://www.w3.org/1999/xlink" x="0px" y="0px"
	 viewBox="0 0 1000 1000" style="enable-background:new 0 0 1000 1000;" xml:space="preserve">
<style type="text/css">
	.st0{fill:#1D1D1B;}
</style>
<path class="st0" d="M599.7,133.3V0L266.3,0c-50,0-100,50-100,100v32.4c-50,0-100,50-100,100v335.2c0,50,50,100,100,100V700
	c0,50,50,100,100,100l333.3,0V666.7H466.3V333.3h100V200h-100v-66.7H599.7z M333,666.7h-33.3v-32.4c0-50-50-100-100-100V265.7
	c50,0,100-50,100-100v-32.4H333V666.7z"/>
</svg>
