<?xml version="1.0" encoding="utf-8"?>
<!-- Generator: Adobe Illustrator 19.2.1, SVG Export Plug-In . SVG Version: 6.00 Build 0)  -->
<svg version="1.1" id="Calque_1" xmlns="http://www.w3.org/2000/svg" xmlns:xlink="http://www.w3.org/1999/xlink" x="0px" y="0px"
	 viewBox="0 0 1000 1000" style="enable-background:new 0 0 1000 1000;" xml:space="preserve">
<style type="text/css">
	.st0{fill:#1D1D1B;}
</style>
<rect x="132.1" y="466.7" class="st0" width="400" height="133.3"/>
<polygon class="st0" points="532.1,66.6 532.1,0 132.1,0 132.1,66.6 243.3,66.6 209.9,166.7 132.1,166.7 132.1,233.3 187.7,233.3 
	154.3,333.4 132.1,333.4 132.2,400 309.9,400 309.9,333.4 287.7,333.4 321,233.3 343.2,233.3 376.6,333.4 354.3,333.4 354.3,400 
	532.1,400 532.1,333.4 509.9,333.4 476.5,233.3 532.1,233.3 532.1,166.7 454.3,166.7 420.9,66.6 "/>
</svg>
