<?xml version="1.0" encoding="utf-8"?>
<!-- Generator: Adobe Illustrator 19.2.1, SVG Export Plug-In . SVG Version: 6.00 Build 0)  -->
<svg version="1.1" id="Calque_1" xmlns="http://www.w3.org/2000/svg" xmlns:xlink="http://www.w3.org/1999/xlink" x="0px" y="0px"
	 viewBox="0 0 1000 1000" style="enable-background:new 0 0 1000 1000;" xml:space="preserve">
<style type="text/css">
	.st0{stroke:#000000;stroke-width:0.5;stroke-miterlimit:10;}
</style>
<path class="st0" d="M499.7,0H166.4c-50,0-100,50-100,100v400c0,50,50,100,100,100h100v66.7h-200V800l200,0
	c32.8-0.4,65.3-32.7,66-65.5h0.7c0.7,33,33.6,65.6,66.6,65.6h200V666.7h-200V600h100c50,0,100-50,100-100V100
	C599.7,50,549.7,0,499.7,0z M266.4,333.3v133.3h-66.7V133.3h266.7v333.3h-66.7V333.3H266.4z"/>
</svg>
