<?xml version="1.0" encoding="utf-8"?>
<!-- Generator: Adobe Illustrator 19.2.1, SVG Export Plug-In . SVG Version: 6.00 Build 0)  -->
<svg version="1.1" id="Calque_1" xmlns="http://www.w3.org/2000/svg" xmlns:xlink="http://www.w3.org/1999/xlink" x="0px" y="0px"
	 viewBox="0 0 1000 1000" style="enable-background:new 0 0 1000 1000;" xml:space="preserve">
<style type="text/css">
	.st0{stroke:#000000;stroke-width:0.5;stroke-miterlimit:10;}
</style>
<path class="st0" d="M599.7,200V100c0-50-50-100-100-100H166.3c-50,0-100,50-100,100v366.7c0,50,50,100,100,100h135.6v-0.1
	c49.2-1.5,97.8-50.6,97.8-99.9v-100h66.7v300H199.6V600H66.3v100c0,50,50,100,100,100h333.3c50,0,100-50,100-100V333.3
	c0-50-50-100-100-100H366.3c-50,0-100,50-100,100v100h-66.7v-300h266.7V200H599.7z"/>
</svg>
