<?xml version="1.0" encoding="utf-8"?>
<!-- Generator: Adobe Illustrator 19.2.1, SVG Export Plug-In . SVG Version: 6.00 Build 0)  -->
<svg version="1.1" id="Calque_1" xmlns="http://www.w3.org/2000/svg" xmlns:xlink="http://www.w3.org/1999/xlink" x="0px" y="0px"
	 viewBox="0 0 1000 1000" style="enable-background:new 0 0 1000 1000;" xml:space="preserve">
<style type="text/css">
	.st0{fill:#1D1D1B;}
</style>
<path class="st0" d="M563.5,264.2c-11.7-11.1-50-49.4-61.1-61.1c-13.9-13.9-32.8-36.1-69.4-36.1c-6,0-99.9,0-166.7,0v-33.6H333V0
	H66.3v133.3H133v533.3H66.3V800H333V666.7h-66.7v-33.6c0,0,157.2,0,166.7,0c36.7,0,55.6-22.2,69.4-36.1c11.1-11.7,49.4-50,61.1-61.1
	c13.9-13.9,36.1-32.8,36.1-69.4c0-9.3,0-123.5,0-132.8C599.7,296.9,577.4,278.1,563.5,264.2z M466.3,432.5v1.1l-66.7,65.6v0.6H266.3
	V300.3h133.9l65.6,66.7h0.6V432.5z"/>
</svg>
