<?xml version="1.0" encoding="utf-8"?>
<!-- Generator: Adobe Illustrator 19.2.1, SVG Export Plug-In . SVG Version: 6.00 Build 0)  -->
<svg version="1.1" id="Calque_1" xmlns="http://www.w3.org/2000/svg" xmlns:xlink="http://www.w3.org/1999/xlink" x="0px" y="0px"
	 viewBox="0 0 1000 1000" style="enable-background:new 0 0 1000 1000;" xml:space="preserve">
<style type="text/css">
	.st0{fill:#1D1D1B;}
</style>
<g>
	<path class="st0" d="M199.7,600H133c-33.3,0-66.7,33.3-66.7,66.6v66.7c0,33.3,33.4,66.7,66.7,66.7h66.7c33.3,0,66.7-33.3,66.7-66.7
		v-66.7C266.3,633.3,233,600,199.7,600z"/>
	<path class="st0" d="M533,600h-66.7c-33.3,0-66.7,33.3-66.7,66.6v66.7c0,33.3,33.4,66.7,66.7,66.7H533c33.3,0,66.7-33.3,66.7-66.7
		v-66.7C599.6,633.3,566.3,600,533,600z"/>
	<path class="st0" d="M366.3,333.3h-66.7c-33.3,0-66.7,33.3-66.7,66.6v66.7c0,33.3,33.4,66.7,66.7,66.7h66.7
		c33.3,0,66.7-33.3,66.7-66.7V400C433,366.7,399.6,333.3,366.3,333.3z"/>
</g>
</svg>
