<?xml version="1.0" encoding="utf-8"?>
<!-- Generator: Adobe Illustrator 19.2.1, SVG Export Plug-In . SVG Version: 6.00 Build 0)  -->
<svg version="1.1" id="Calque_1" xmlns="http://www.w3.org/2000/svg" xmlns:xlink="http://www.w3.org/1999/xlink" x="0px" y="0px"
	 viewBox="0 0 1000 1000" style="enable-background:new 0 0 1000 1000;" xml:space="preserve">
<path d="M599.7,66.7V0H466.4v66.7l-100,266.7H333h-33.3l-100-266.7V0H66.4v66.7c0.6,17.2,2.2,26.3,10.6,47.8
	C189.2,405.1,79,119.8,187.3,400c-108.2,280.2,2-5.1-110.3,285.6c-8.3,21.5-10,30.6-10.6,47.8V800h133.3v-66.7l100-266.7H333h33.3
	l100,266.7V800h133.3v-66.7c-0.6-17.2-2.2-26.3-10.6-47.8c-112.3-290.7-2.1-5.4-110.3-285.6c108.2-280.2-2,5.1,110.3-285.6
	C597.5,92.9,599.1,83.9,599.7,66.7z"/>
</svg>
