<?xml version="1.0" encoding="utf-8"?>
<!-- Generator: Adobe Illustrator 19.2.1, SVG Export Plug-In . SVG Version: 6.00 Build 0)  -->
<svg version="1.1" id="Calque_1" xmlns="http://www.w3.org/2000/svg" xmlns:xlink="http://www.w3.org/1999/xlink" x="0px" y="0px"
	 viewBox="0 0 1000 1000" style="enable-background:new 0 0 1000 1000;" xml:space="preserve">
<style type="text/css">
	.st0{fill:#1D1D1B;}
</style>
<g>
	<polygon class="st0" points="599.7,133.3 466.4,0 199.7,0 66.4,133.3 266.4,133.3 333.1,66.7 399.7,133.3 	"/>
	<path d="M589.2,481.7C533.1,200,533.1,200,533.1,200H399.7l66.7,333.3H199.7L266.4,200H133.1c0,0,0,0-56.1,281.7
		c-6.5,32.8-10.6,56.1-10.6,85c0,50,50,100,100,100h100V800h133.3V666.7h100c50,0,100-50,100-100
		C599.7,537.8,595.7,514.5,589.2,481.7z"/>
</g>
</svg>
