<?xml version="1.0" encoding="utf-8"?>
<!-- Generator: Adobe Illustrator 19.2.1, SVG Export Plug-In . SVG Version: 6.00 Build 0)  -->
<svg version="1.1" id="Calque_1" xmlns="http://www.w3.org/2000/svg" xmlns:xlink="http://www.w3.org/1999/xlink" x="0px" y="0px"
	 viewBox="0 0 1000 1000" style="enable-background:new 0 0 1000 1000;" xml:space="preserve">
<style type="text/css">
	.st0{stroke:#000000;stroke-width:0.5;stroke-miterlimit:10;}
</style>
<path class="st0" d="M466.3,666.7H233l137.8-200H533V333.3h-71.1l118.9-172.8c12.2-17.8,18.9-38.9,18.9-60.6c0-55-45-100-100-100
	H166.3c-50,0-100,50-100,100v166.7h133.3V133.3H433l-137.8,200H133v133.3h71.1L85.2,639.4C73,657.2,66.3,678.3,66.3,700
	c0,55,45,100,100,100h334.4v-0.1c49.6-0.7,98.9-50.3,98.9-99.9V533.3H466.3V666.7z"/>
</svg>
