<?xml version="1.0" encoding="utf-8"?>
<!-- Generator: Adobe Illustrator 19.2.1, SVG Export Plug-In . SVG Version: 6.00 Build 0)  -->
<svg version="1.1" id="Calque_1" xmlns="http://www.w3.org/2000/svg" xmlns:xlink="http://www.w3.org/1999/xlink" x="0px" y="0px"
	 viewBox="0 0 1000 1000" style="enable-background:new 0 0 1000 1000;" xml:space="preserve">
<style type="text/css">
	.st0{fill:#1D1D1B;}
</style>
<polygon class="st0" points="599.6,200 599.7,0 66.3,0 66.3,133.3 133.3,133.3 133.3,233.3 66.3,233.3 66.3,366.7 133.3,366.7 
	133.3,433.3 66.3,433.3 66.3,566.7 133.3,566.7 133.3,666.7 66.3,666.7 66.3,800 599.7,800 599.6,600 466.3,600 466.3,666.7 
	266.6,666.7 266.6,566.7 399.6,566.7 399.6,433.3 266.6,433.3 266.6,366.7 399.6,366.7 399.6,233.3 266.6,233.3 266.6,133.3 
	466.3,133.3 466.3,200 "/>
</svg>
