<?xml version="1.0" encoding="utf-8"?>
<!-- Generator: Adobe Illustrator 19.2.1, SVG Export Plug-In . SVG Version: 6.00 Build 0)  -->
<svg version="1.1" id="Calque_1" xmlns="http://www.w3.org/2000/svg" xmlns:xlink="http://www.w3.org/1999/xlink" x="0px" y="0px"
	 viewBox="0 0 1000 1000" style="enable-background:new 0 0 1000 1000;" xml:space="preserve">
<style type="text/css">
	.st0{fill:#1D1D1B;}
</style>
<path class="st0" d="M599.7,300c0,0,0-57.2,0-66.7c0-36.7-22.2-55.6-36.1-69.4c-11.7-11.1-50-49.4-61.1-61.1
	c-13.9-13.9-32.8-36.1-69.4-36.1c-2.3,0-15.2,0-33.3,0V0H266.3v66.7c-17.8,0-30.5,0-32.8,0c-36.7,0-55.6,22.2-69.4,36.1
	c-11.1,11.7-49.4,50-61.1,61.1c-13.9,13.9-36.1,32.8-36.1,69.4c0,9.4,0,57.2,0,66.7c0,36.7,22.2,55.6,36.1,69.4
	c11.7,11.1,50,49.4,61.1,61.1c13.9,13.9,32.8,36.1,69.4,36.1c2.5,0,15.3-0.1,32.8-0.2v133l-66.7-65.6V500H66.3c0,0,0,57.2,0,66.7
	c0,36.7,22.2,55.6,36.1,69.4c11.7,11.1,50,49.4,61.1,61.1c13.9,13.9,32.8,36.1,69.4,36.1c2.3,0,15.2,0,33.3,0V800h133.3v-66.7
	c18.1,0,31,0,33.3,0c36.7,0,55.6-22.2,69.4-36.1c11.1-11.7,49.4-50,61.1-61.1c13.9-13.9,36.1-32.8,36.1-69.4c0-9.4,0-58.3,0-67.8
	c0-36.7-22.2-55.6-36.1-69.4c-11.7-11.1-50-49.4-61.1-61.1c-13.9-13.9-32.8-36.1-69.4-36.1c-2.5,0-15.6,0.1-33.3,0.2V200h0.6
	l65.6,66.7h0.6V300H599.7z M466.3,533.4h-0.6L399.5,600V466.1L466.3,533.4z M199.6,266.7h0.6l66.1-65.6v132.2L199.6,266.7z"/>
</svg>
