<?xml version="1.0" encoding="utf-8"?>
<!-- Generator: Adobe Illustrator 22.0.1, SVG Export Plug-In . SVG Version: 6.00 Build 0)  -->
<svg version="1.1" id="Calque_1" xmlns="http://www.w3.org/2000/svg" xmlns:xlink="http://www.w3.org/1999/xlink" x="0px" y="0px"
	 viewBox="0 0 1000 1000" style="enable-background:new 0 0 1000 1000;" xml:space="preserve">
<path d="M533,666.7L233,133.3h233.3V200h133.3V0H66.3v133.3l96,170.7c-12.4,12.9-48.6,49.1-59.9,59.9
	c-13.9,13.9-36.1,32.8-36.1,69.4c0,9.4,0,190.7,0,200c0,36.7,22.2,55.6,36.1,69.4c11.7,11.1,50,49.4,61.1,61.1
	c13.9,13.9,32.8,36.1,69.4,36.1c9.4,0,366.7,0,366.7,0V666.7H533z M266.3,666.7L199.6,600V466.7l34.7-34.7l132,234.7H266.3z"/>
</svg>
