<?xml version="1.0" encoding="utf-8"?>
<!-- Generator: Adobe Illustrator 19.2.1, SVG Export Plug-In . SVG Version: 6.00 Build 0)  -->
<svg version="1.1" id="Calque_1" xmlns="http://www.w3.org/2000/svg" xmlns:xlink="http://www.w3.org/1999/xlink" x="0px" y="0px"
	 viewBox="0 0 1000 1000" style="enable-background:new 0 0 1000 1000;" xml:space="preserve">
<style type="text/css">
	.st0{fill:#1D1D1B;}
</style>
<path class="st0" d="M563.3,369.4c13.9-13.9,36.1-32.8,36.1-69.4c0,0,0.2-123.9,0.2-133.3c0-36.7-22.2-55.6-36.1-69.4
	c-11.7-11.1-50-49.4-61.1-61.1C488.5,22.2,469.6,0,433,0c-9.4,0-190.6,0-200,0c-36.7,0-55.6,22.2-69.4,36.1
	c-11.1,11.7-49.4,50-61.1,61.1c-13.9,13.9-36.1,32.8-36.1,69.4c0,3.4,0,130,0,133.3c0,36.7,22.2,55.6,36.1,69.4
	c11.7,11.1,50,49.4,61.1,61.1c13.9,13.9,32.8,36.1,69.4,36.1c3.4,0,17.3,0,33.6,0c-81.7,81.8-158.5,158.8-163.9,163.9
	c-13.9,13.9-36.1,32.8-36.1,69.4c0,9.4,0,98.9,0,98.9v1.1h533.1V666.7H266C266,666.7,551.7,380.6,563.3,369.4z M266.3,333.3v-0.6
	l-66.7-65.6v-0.6v-1.1V200h0.6l65.6-66.7h133.9l66.7,66.7v66.7h-0.2c0,0-27.1,27.2-66.5,66.7H266.3z"/>
</svg>
