<?xml version="1.0" encoding="utf-8"?>
<!-- Generator: Adobe Illustrator 19.2.1, SVG Export Plug-In . SVG Version: 6.00 Build 0)  -->
<svg version="1.1" id="Calque_1" xmlns="http://www.w3.org/2000/svg" xmlns:xlink="http://www.w3.org/1999/xlink" x="0px" y="0px"
	 viewBox="0 0 1000 1000" style="enable-background:new 0 0 1000 1000;" xml:space="preserve">
<style type="text/css">
	.st0{fill:#1D1D1B;}
</style>
<path class="st0" d="M499.6,0H166.3c-50,0-100,50-100,100v166.7l133.3-44.4v-88.9h266.7v155.5l-266.7,88.9V511L383,449.9l83.3,83.3
	v133.4H199.6V600L66.3,644.4V700c0,50,50,100,100,100h333.3c50,0,100-50,100-100V500c0-25.4-11-44.9-29-62.7
	C532.9,400,532.9,400,532.9,400c32.9-13.2,66.7-50,66.7-100V100C599.6,50,549.6,0,499.6,0z"/>
</svg>
