<?xml version="1.0" encoding="utf-8"?>
<!-- Generator: Adobe Illustrator 19.2.1, SVG Export Plug-In . SVG Version: 6.00 Build 0)  -->
<svg version="1.1" id="Calque_1" xmlns="http://www.w3.org/2000/svg" xmlns:xlink="http://www.w3.org/1999/xlink" x="0px" y="0px"
	 viewBox="0 0 1000 1000" style="enable-background:new 0 0 1000 1000;" xml:space="preserve">
<style type="text/css">
	.st0{fill:#1D1D1B;}
</style>
<path class="st0" d="M233,0c-36.7,0-55.6,22.2-69.4,36.1c-11.1,11.7-49.4,50-61.1,61.1c-13.9,13.9-36.1,32.8-36.1,69.4
	c0,5.7,0,168.3,0,300h333.9l65.6,66.7h0.6v65.6v1.1v0.6l-66.7,65.6v0.6h-65.6h-68.3L200.2,600h-0.6v-66.7H66.4c0,0,0,98.5,0,100
	c0,36.7,22.2,55.6,36.1,69.4c11.7,11.1,50,49.4,61.1,61.1c13.9,13.9,32.8,36.1,69.4,36.1c9.4,0,190.6,0,200,0
	c36.7,0,55.6-22.2,69.4-36.1c11.1-11.7,49.4-50,61.1-61.1c13.9-13.9,36.1-32.8,36.1-69.4c0-9.4,0-123.9,0-133.3
	c0-36.7-22.2-55.6-36.1-69.4c-11.7-11.1-50-49.4-61.1-61.1c-13.9-13.9-32.8-36.1-69.4-36.1c-9.4,0-233.3,0-233.3,0V200h0.6
	l65.6-66.7h200.6V200h133.3V0C599.7,0,240.1,0,233,0z"/>
</svg>
