<?xml version="1.0" encoding="utf-8"?>
<!-- Generator: Adobe Illustrator 19.2.1, SVG Export Plug-In . SVG Version: 6.00 Build 0)  -->
<svg version="1.1" id="Calque_1" xmlns="http://www.w3.org/2000/svg" xmlns:xlink="http://www.w3.org/1999/xlink" x="0px" y="0px"
	 viewBox="0 0 1000 1000" style="enable-background:new 0 0 1000 1000;" xml:space="preserve">
<style type="text/css">
	.st0{fill:#1D1D1B;}
</style>
<path class="st0" d="M499.6,0H166.3c-50,0-100,50-100,116.4v600c0,33.6,50,83.6,100,83.6h333.3c50,0,100-50,100-100V383
	c0-50-50-100-100-100c-12.2,0-22.3,3.2-33.3,6.8c-266.7,88-266.7,88-266.7,88V133.3h266.7V200l133.3-44.4V100
	C599.7,50,549.7,0,499.6,0z M466.3,422.2v244.1v0.3H199.6V511.1L466.3,422.2z"/>
</svg>
