<?xml version="1.0" encoding="utf-8"?>
<!-- Generator: Adobe Illustrator 19.2.1, SVG Export Plug-In . SVG Version: 6.00 Build 0)  -->
<svg version="1.1" id="Calque_1" xmlns="http://www.w3.org/2000/svg" xmlns:xlink="http://www.w3.org/1999/xlink" x="0px" y="0px"
	 viewBox="0 0 1000 1000" style="enable-background:new 0 0 1000 1000;" xml:space="preserve">
<style type="text/css">
	.st0{fill:#1D1D1B;}
</style>
<path class="st0" d="M599.6,266.4l0-166.7c0-50-50.3-99.7-100.3-99.7H166.7c-50,0-100.3,50-100.3,100v286
	c0,25.6,14.6,51.1,35.5,68.3c-19.9,18.5-35.4,45.9-35.5,79.3l0,166.7c0,50,50.3,99.7,100.3,99.7h332.6c50,0,100.3-50,100.3-100V414
	c0-25.6-14.6-51.1-35.5-68.3C584,327.2,599.5,299.7,599.6,266.4z M466,666.4L200,667V511.4l266-89.2V666.4z M466,288.6l-266,89.2
	V133.6l266-0.6V288.6z"/>
</svg>
