<?xml version="1.0" encoding="utf-8"?>
<!-- Generator: Adobe Illustrator 19.2.1, SVG Export Plug-In . SVG Version: 6.00 Build 0)  -->
<svg version="1.1" id="Calque_1" xmlns="http://www.w3.org/2000/svg" xmlns:xlink="http://www.w3.org/1999/xlink" x="0px" y="0px"
	 viewBox="0 0 1000 1000" style="enable-background:new 0 0 1000 1000;" xml:space="preserve">
<g>
	<path d="M564,97.2c-11.7-11.1-50-49.4-61.1-61.1C489,22.2,470.1,0,433.5,0c-9.4,0-190.6,0-200,0c-36.7,0-55.6,22.2-69.4,36.1
		c-11.1,11.7-49.4,50-61.1,61.1C89,111.1,66.8,130,66.8,166.7c0,40.3,0,66.7,0,66.7h133.3V200l66.7-66.7h133.9l66.1,66.7v200
		l-33.3,32.8c0,0,0-33.2,0-33.3c0-36.7-22.2-55.6-36.1-69.4c-11.7-11.1-50-49.4-61.1-61.1c-13.9-13.9-32.8-36.1-69.4-36.1
		c0,0-33.4,0-33.4,0c-36.7,0-55.6,22.2-69.4,36.1c-11.1,11.7-49.4,50-61.1,61.1c-13.9,13.9-36.1,32.8-36.1,69.4c0,0.1,0,33.8,0,33.9
		c0,36.7,22.2,55.6,36.1,69.4c11.7,11.1,50,49.4,61.1,61.1c13.9,13.9,32.8,36.1,69.4,36.1c0,0,33.4,0,33.4,0
		c36.7,0,55.6-22.2,69.4-36.1c3-3.1,8-8.2,13.9-14.2c5.9,5.9,10.9,11,13.9,14.2c13.9,13.9,32.8,36.1,69.4,36.1s55.6-22.2,69.4-36.1
		c11.1-11.7,49.4-50,61.1-61.1c13.9-13.9,36.1-32.8,36.1-69.4c0,0,0-259.3,0-266.7C600.1,130,577.9,111.1,564,97.2z M250.4,450
		l-33.9-33.4l33.4-33.9l33.9,33.4L250.4,450z"/>
	<path d="M400.1,666.7H266.2l-33.1-33.3H66.8c0,36.7,22.2,55.6,36.1,69.4c11.7,11.1,50,49.4,61.1,61.1
		c13.9,13.9,32.8,36.1,69.4,36.1c9.4,0,190.6,0,200,0c36.7,0,55.6-22.2,69.4-36.1c11.1-11.7,49.4-50,61.1-61.1
		c13.9-13.9,36.1-32.8,36.1-69.4H433.5L400.1,666.7z"/>
</g>
</svg>
