<?xml version="1.0" encoding="utf-8"?>
<!-- Generator: Adobe Illustrator 19.2.1, SVG Export Plug-In . SVG Version: 6.00 Build 0)  -->
<svg version="1.1" id="Calque_1" xmlns="http://www.w3.org/2000/svg" xmlns:xlink="http://www.w3.org/1999/xlink" x="0px" y="0px"
	 viewBox="0 0 1000 1000" style="enable-background:new 0 0 1000 1000;" xml:space="preserve">
<style type="text/css">
	.st0{fill:#1D1D1B;}
</style>
<path class="st0" d="M599.6,800l0-466.7c0-50-33.8-86.8-66.7-100L400,189c18.9-12.5,33-34.1,33-55.7V66.7C433,33.3,399.6,0,366.3,0
	h-66.7C266.3,0,233,33.3,233,66.7v66.7c0,21.6,14,43.1,33,55.7l-133,44.3c-32.9,13.2-66.7,50-66.7,100V800h133.3v-66.7l266.7-88.9
	V800H599.6z M299.6,66.7h66.7v66.7h-66.7V66.7z M466.3,511.1L199.6,600V344.4L333,300l133.3,44.4V511.1z"/>
</svg>
