<?xml version="1.0" encoding="utf-8"?>
<!-- Generator: Adobe Illustrator 19.2.1, SVG Export Plug-In . SVG Version: 6.00 Build 0)  -->
<svg version="1.1" id="Calque_1" xmlns="http://www.w3.org/2000/svg" xmlns:xlink="http://www.w3.org/1999/xlink" x="0px" y="0px"
	 viewBox="0 0 1000 1000" style="enable-background:new 0 0 1000 1000;" xml:space="preserve">
<style type="text/css">
	.st0{fill:#1D1D1B;}
</style>
<path class="st0" d="M563.6,97.2c-11.7-11.1-50-49.4-61.1-61.1C488.6,22.2,469.7,0,433.1,0c-9.4,0-190.6,0-200,0
	c-36.7,0-55.6,22.2-69.4,36.1c-11.1,11.7-49.4,50-61.1,61.1c-13.9,13.9-36.1,32.8-36.1,69.4c0,3.8,0,633.3,0,633.3h133.3V658.8
	c9.2,4.4,20.1,7.3,33.3,7.3c9.4,0,190.6,0,200,0c13.2,0,24.1-2.9,33.3-7.3V800h133.3c0,0,0-629.5,0-633.3
	C599.7,130,577.5,111.1,563.6,97.2z M466.4,466.1h-0.6l-65.6,66.7H265.8l-65.6-66.7h-0.6V200h0.6l65.6-66.7h134.4l65.6,66.7h0.6
	V466.1z"/>
</svg>
