<?xml version="1.0" encoding="utf-8"?>
<!-- Generator: Adobe Illustrator 19.2.1, SVG Export Plug-In . SVG Version: 6.00 Build 0)  -->
<svg version="1.1" id="Calque_1" xmlns="http://www.w3.org/2000/svg" xmlns:xlink="http://www.w3.org/1999/xlink" x="0px" y="0px"
	 viewBox="0 0 1000 1000" style="enable-background:new 0 0 1000 1000;" xml:space="preserve">
<style type="text/css">
	.st0{fill:#1D1D1B;stroke:#1D1D1B;stroke-width:0.5;stroke-miterlimit:10;}
</style>
<path class="st0" d="M563.5,297.2c-11.7-11.1-50-49.4-61.1-61.1C488.5,222.2,469.6,200,433,200c-3.6,0-32.2,0-66.7,0
	c33.3,0,66.7-33.3,66.7-66.7V66.7C433,33.3,399.6,0,366.3,0h-66.7C266.3,0,233,33.3,233,66.7v66.7c0,33.3,33.3,66.7,66.7,66.7
	c-34.5,0-63.1,0-66.7,0c-36.7,0-55.6,22.2-69.4,36.1c-11.1,11.7-49.4,50-61.1,61.1c-13.9,13.9-36.1,32.8-36.1,69.4
	c0,9.4,0,433.3,0,433.3h133.3V666.7h266.7V800h133.3c0,0,0-423.9,0-433.3C599.7,329.4,577.4,311.1,563.5,297.2z M299.6,66.7h66.7
	v66.7h-66.7V66.7z M466.3,400.6v132.9H199.6v-134l66.7-65.6v-0.6h133.3v0.6l66.7,65.6V400.6z"/>
</svg>
