<?xml version="1.0" encoding="utf-8"?>
<!-- Generator: Adobe Illustrator 19.2.1, SVG Export Plug-In . SVG Version: 6.00 Build 0)  -->
<svg version="1.1" id="Calque_1" xmlns="http://www.w3.org/2000/svg" xmlns:xlink="http://www.w3.org/1999/xlink" x="0px" y="0px"
	 viewBox="0 0 1000 1000" style="enable-background:new 0 0 1000 1000;" xml:space="preserve">
<path d="M563.6,231.1c-11.7-11.1-50-49.4-61.1-61.1c-13.9-13.9-32.8-36.1-69.4-36.1c-9.4,0-20.6,0-33.3,0V0H266.4v133.9
	c-12.8,0-23.9,0-33.3,0c-36.7,0-55.6,22.2-69.4,36.1c-11.1,11.7-49.4,50-61.1,61.1c-13.9,13.9-36.1,32.8-36.1,69.4
	c0,9.4,0,190.1,0,199.4c0,36.7,22.2,55.6,36.1,69.4c11.7,11.1,50,49.4,61.1,61.1c13.9,13.9,32.8,36.1,69.4,36.1c9.4,0,20.6,0,33.3,0
	V800h133.3V666.7c12.8,0,23.9,0,33.3,0c36.7,0,55.6-22.2,69.4-36.1c11.1-11.7,49.4-50,61.1-61.1c13.9-13.9,36.1-32.8,36.1-69.4
	c0-9.4,0-66.1,0-66.1H466.4v33.3l-66.7,65.6v0.6H266.4v-0.6l-66.7-65.6v-0.6V333.9v-0.6l66.7-65.6v-0.6h133.3v0.6l66.7,65.6v33.9
	h133.3c0,0,0-57.2,0-66.7C599.7,263.3,577.5,245,563.6,231.1z"/>
</svg>
