<?xml version="1.0" encoding="utf-8"?>
<!-- Generator: Adobe Illustrator 19.2.1, SVG Export Plug-In . SVG Version: 6.00 Build 0)  -->
<svg version="1.1" id="Calque_1" xmlns="http://www.w3.org/2000/svg" xmlns:xlink="http://www.w3.org/1999/xlink" x="0px" y="0px"
	 viewBox="0 0 1000 1000" style="enable-background:new 0 0 1000 1000;" xml:space="preserve">
<style type="text/css">
	.st0{fill:#1D1D1B;}
</style>
<path class="st0" d="M599.7,233.9c0,0,0-57.8,0-67.2c0-36.7-22.2-55.6-36.1-69.4c-11.7-11.1-50-49.4-61.1-61.1
	C488.6,22.2,469.7,0,433,0c-9.4,0-190.6,0-200,0c-36.7,0-55.6,22.2-69.4,36.1c-11.1,11.7-49.4,50-61.1,61.1
	c-13.9,13.9-36.1,32.8-36.1,69.4c0,9.4,0,190.6,0,200c0,36.7,22.2,55.6,36.1,69.4c11.7,11.1,50,49.4,61.1,61.1
	c13.9,13.9,32.8,36.1,69.4,36.1c2.3,0,15.2,0,33.3,0v133.4h133.3v66.7H266.4V800h200c33.3,0,66.7-33.2,66.7-66.6v-66.7
	c0-33.3-33.3-66.7-66.7-66.7h-66.7v-66.7c18.1,0,31,0,33.3,0c36.7,0,55.6-22.2,69.4-36.1c11.1-11.7,49.4-50,61.1-61.1
	c13.9-13.9,36.1-32.8,36.1-69.4c0-9.4,0-67.2,0-67.2H466.4v33.9h-0.6L400.2,400H265.8l-65.6-66.7h-0.6V200h0.6l65.6-66.7h134.4
	l65.6,66.7h0.6v33.9H599.7z"/>
</svg>
