<?xml version="1.0" encoding="utf-8"?>
<!-- Generator: Adobe Illustrator 19.2.1, SVG Export Plug-In . SVG Version: 6.00 Build 0)  -->
<svg version="1.1" id="Calque_1" xmlns="http://www.w3.org/2000/svg" xmlns:xlink="http://www.w3.org/1999/xlink" x="0px" y="0px"
	 viewBox="0 0 1000 1000" style="enable-background:new 0 0 1000 1000;" xml:space="preserve">
<style type="text/css">
	.st0{fill:#1D1D1B;}
</style>
<path class="st0" d="M563.5,97.2c-11.7-11.1-50-49.4-61.1-61.1C488.5,22.2,469.6,0,433,0C423.7,0,66.3,0,66.3,0v800
	c0,0,357.4,0,366.7,0c36.7,0,55.6-22.2,69.4-36.1c11.1-11.7,49.4-50,61.1-61.1c13.9-13.9,36.1-32.8,36.1-69.4c0-9.4,0-457.2,0-466.7
	C599.7,130,577.4,111.1,563.5,97.2z M466.3,600h-0.6l-65.6,66.7H199.6v-200H333V333.3H199.6v-200h200.6l65.6,66.7h0.6V600z"/>
</svg>
