<?xml version="1.0" encoding="utf-8"?>
<!-- Generator: Adobe Illustrator 19.2.1, SVG Export Plug-In . SVG Version: 6.00 Build 0)  -->
<svg version="1.1" id="Calque_1" xmlns="http://www.w3.org/2000/svg" xmlns:xlink="http://www.w3.org/1999/xlink" x="0px" y="0px"
	 viewBox="0 0 1000 1000" style="enable-background:new 0 0 1000 1000;" xml:space="preserve">
<style type="text/css">
	.st0{fill:#1D1D1B;}
</style>
<g>
	<rect x="66.4" class="st0" width="133.3" height="133.3"/>
	<rect x="466.4" class="st0" width="133.3" height="133.3"/>
	<path class="st0" d="M233,200c-36.7,0-55.6,22.2-69.4,36.1c-11.1,11.7-49.4,50-61.1,61.1c-13.9,13.9-36.1,32.8-36.1,69.4
		c0,9.4,0,257.2,0,266.7c0,36.7,22.2,55.6,36.1,69.4c11.7,11.1,50,49.4,61.1,61.1c13.9,13.9,32.8,36.1,69.4,36.1
		c5.5,0,130.7,0,233.3,0c72.3,0,133.3,0,133.3,0V600H466.4v66.7h-200h-0.6L200.2,600h-0.6v-33.3h200V433.3h-200v-32.1V400h0.6
		l65.6-66.7h200.6V400h133.3V200C599.7,200,238.5,200,233,200z"/>
</g>
</svg>
