<?xml version="1.0" encoding="utf-8"?>
<!-- Generator: Adobe Illustrator 19.2.1, SVG Export Plug-In . SVG Version: 6.00 Build 0)  -->
<svg version="1.1" id="Calque_1" xmlns="http://www.w3.org/2000/svg" xmlns:xlink="http://www.w3.org/1999/xlink" x="0px" y="0px"
	 viewBox="0 0 1000 1000" style="enable-background:new 0 0 1000 1000;" xml:space="preserve">
<style type="text/css">
	.st0{fill:#1D1D1B;}
</style>
<path class="st0" d="M102.4,702.8c11.7,11.1,50,49.4,61.1,61.1c13.9,13.9,32.8,36.1,69.4,36.1c9.4,0,190.6,0,200,0
	c36.7,0,55.6-22.2,69.4-36.1c11.1-11.7,49.4-50,61.1-61.1c13.9-13.9,36.1-32.8,36.1-69.4c0-9.4,0-98.9,0-98.9v-1.1H466.3v1.1V600
	h-0.6l-65.6,66.7H266.3v-0.6l-66.7-65.6V600v-1.1v-65.6h0.6l65.6-66.7h0.6H333V333.3h-66.7c-0.2,0-0.4,0-0.6,0l-65.6-66.7h-0.6
	v-65.6V200v-0.6l66.7-65.6v-0.6h133.9l65.6,66.7h0.6v65.6v1.1h133.3v-1.1c0,0,0-89.4,0-98.9c0-36.7-22.2-55.6-36.1-69.4
	c-11.7-11.1-50-49.4-61.1-61.1C488.5,22.2,469.7,0,433,0c-9.4,0-190.6,0-200,0c-36.7,0-55.6,22.2-69.4,36.1
	c-11.1,11.7-49.4,50-61.1,61.1c-13.9,13.9-36.1,32.8-36.1,69.4c0,9.4,0,123.9,0,133.3c0,36.7,22.2,55.6,36.1,69.4
	c11.7,11.1,21.7,21.7,30.6,30.6c-8.9,8.9-18.9,19.4-30.6,30.6c-13.9,13.9-36.1,32.8-36.1,69.4c0,9.4,0,123.9,0,133.3
	C66.3,670,88.5,688.9,102.4,702.8z"/>
</svg>
