<?xml version="1.0" encoding="utf-8"?>
<!-- Generator: Adobe Illustrator 19.2.1, SVG Export Plug-In . SVG Version: 6.00 Build 0)  -->
<svg version="1.1" id="Calque_1" xmlns="http://www.w3.org/2000/svg" xmlns:xlink="http://www.w3.org/1999/xlink" x="0px" y="0px"
	 viewBox="0 0 1000 1000" style="enable-background:new 0 0 1000 1000;" xml:space="preserve">
<style type="text/css">
	.st0{fill:#1D1D1B;}
</style>
<path class="st0" d="M563.6,363.9c-11.7-11.1-50-49.4-61.1-61.1c-13.9-13.9-32.8-36.1-69.4-36.1c-9.4,0-66.7,0-66.7,0V133.3h100
	V66.7H199.7v66.7h100v133.3c0,0-57.2,0-66.7,0c-36.7,0-55.6,22.2-69.4,36.1c-11.1,11.7-49.4,50-61.1,61.1
	c-13.9,13.9-36.1,32.8-36.1,69.4c0,9.4,0,100,0,100h1.1c0,0,89.4,0,98.9,0c36.7,0,55.6-22.2,69.4-36.1c1-1,1.9-2,2.9-3
	c0,2.6,0.4,77.6,0,93.7c0,19.6-2.4,48.7,23.6,74.6c6.7,6.7,70.7,70.7,70.7,70.7l0.8-0.8c0,0,63.2-63.2,69.9-69.9
	c25.9-25.9,23.6-55,23.6-74.6c-0.4-16.1,0-91.2,0-93.7c1,1,1.9,1.9,2.9,3c13.9,13.9,32.8,36.1,69.4,36.1c9.4,0,100,0,100,0v-1.1
	c0,0,0-89.4,0-98.9C599.7,396.7,577.5,377.8,563.6,363.9z"/>
</svg>
