<?xml version="1.0" encoding="utf-8"?>
<!-- Generator: Adobe Illustrator 19.2.1, SVG Export Plug-In . SVG Version: 6.00 Build 0)  -->
<svg version="1.1" id="Calque_1" xmlns="http://www.w3.org/2000/svg" xmlns:xlink="http://www.w3.org/1999/xlink" x="0px" y="0px"
	 viewBox="0 0 1000 1000" style="enable-background:new 0 0 1000 1000;" xml:space="preserve">
<style type="text/css">
	.st0{fill:#1D1D1B;}
</style>
<g>
	<path class="st0" d="M598.5,200c0,0-89.4,0-98.9,0c-36.7,0-55.6,22.2-69.4,36.1c-1,1.1-2,2.1-3.1,3.1c-0.1-8.5-0.1-17.5,0.1-27.2
		c0-19.6,2.4-48.7-23.6-74.6C397,130.7,333,66.7,333,66.7l-0.8,0.8c0,0-63.2,63.2-69.9,69.9c-25.9,25.9-23.6,55-23.6,74.6
		c0.2,9.7,0.2,18.8,0.1,27.2c-1-1.1-2-2.1-3.1-3.1C221.9,222.2,203,200,166.3,200c-9.4,0-100,0-100,0v1.1c0,0,0,89.4,0,98.9
		c0,36.7,22.2,55.6,36.1,69.4c11.7,11.1,21.7,21.7,30.6,30.6c-8.9,8.9-18.9,19.4-30.6,30.6c-13.9,13.9-36.1,32.8-36.1,69.4
		c0,9.4,0,100,0,100h1.1c0,0,89.4,0,98.9,0c36.7,0,55.6-22.2,69.4-36.1c1-1.1,2-2.1,3.1-3.1c0.1,8.5,0.1,17.5-0.1,27.2
		c0,19.6-2.4,48.7,23.6,74.6c6.7,6.7,70.7,70.7,70.7,70.7l0.8-0.8c0,0,63.2-63.2,69.9-69.9c25.9-25.9,23.6-55,23.6-74.6
		c-0.2-9.7-0.2-18.8-0.1-27.2c1,1.1,2,2.1,3.1,3.1c13.9,13.9,32.8,36.1,69.4,36.1c9.4,0,100,0,100,0v-1.1c0,0,0-89.4,0-98.9
		c0-36.7-22.2-55.6-36.1-69.4c-11.7-11.1-21.7-21.7-30.6-30.6c8.9-8.9,18.9-19.4,30.6-30.6c13.9-13.9,36.1-32.8,36.1-69.4
		c0-9.4,0-100,0-100L598.5,200L598.5,200z M433,433.3c0,33.3-33.3,66.7-66.7,66.7h-66.7c-33.3,0-66.7-33.3-66.7-66.7v-66.7
		c0-33.3,33.3-66.7,66.7-66.7h66.7c33.3,0,66.7,33.3,66.7,66.7V433.3z"/>
</g>
</svg>
