<?xml version="1.0" encoding="utf-8"?>
<!-- Generator: Adobe Illustrator 19.2.1, SVG Export Plug-In . SVG Version: 6.00 Build 0)  -->
<svg version="1.1" id="Calque_1" xmlns="http://www.w3.org/2000/svg" xmlns:xlink="http://www.w3.org/1999/xlink" x="0px" y="0px"
	 viewBox="0 0 1000 1000" style="enable-background:new 0 0 1000 1000;" xml:space="preserve">
<style type="text/css">
	.st0{fill:#1D1D1B;}
</style>
<g>
	<path class="st0" d="M466.4,665.6l-66.1-65c0,0-0.6-224.4-0.6-233.9c0-36.7-22.2-55.6-36.1-69.4c-11.7-11.1-50-49.4-61.1-61.1
		C288.6,222.2,269.7,200,233,200c-9.4,0-166.7,0.1-166.7,0.1V800h133.3V333.9l66.7,65.6c0,0,0.6,224.4,0.6,233.9
		c0,36.7,22.2,55.6,36.1,69.4c11.7,11.1,50,49.4,61.1,61.1c13.9,13.9,32.8,36.1,69.4,36.1c9.3,0,166.1,0,166.1,0V200.1H466.4V665.6z
		"/>
	<rect x="66.4" class="st0" width="533.3" height="133.3"/>
</g>
</svg>
