<?xml version="1.0" encoding="utf-8"?>
<!-- Generator: Adobe Illustrator 19.2.1, SVG Export Plug-In . SVG Version: 6.00 Build 0)  -->
<svg version="1.1" id="Calque_1" xmlns="http://www.w3.org/2000/svg" xmlns:xlink="http://www.w3.org/1999/xlink" x="0px" y="0px"
	 viewBox="0 0 1000 1000" style="enable-background:new 0 0 1000 1000;" xml:space="preserve">
<g>
	<path d="M563.6,297.2c-11.7-11.1-50-49.4-61.1-61.1C488.6,222.2,469.7,200,433,200c-9.4,0-190.6,0-200,0
		c-36.7,0-55.6,22.2-69.4,36.1c-11.1,11.7-49.4,50-61.1,61.1c-13.9,13.9-36.1,32.8-36.1,69.4c0,9.4,0,257.2,0,266.7
		c0,36.7,22.2,55.6,36.1,69.4c11.7,11.1,50,49.4,61.1,61.1c13.9,13.9,32.8,36.1,69.4,36.1c9.4,0,190.6,0,200,0
		c36.7,0,55.6-22.2,69.4-36.1c11.1-11.7,49.4-50,61.1-61.1c13.9-13.9,36.1-32.8,36.1-69.4c0-9.4,0-259.4,0-266.7
		C599.7,329.4,577.5,311.1,563.6,297.2z M466.4,600.6l-66.7,65.6v0.6H266.4v-0.6l-66.7-65.6V600v-0.6V400.6v-1.1l66.7-65.6v-0.6
		h133.3v0.6l66.7,65.6V600.6z"/>
	<rect x="66.4" width="133.3" height="133.3"/>
	<rect x="466.4" width="133.3" height="133.3"/>
</g>
</svg>
