<?xml version="1.0" encoding="utf-8"?>
<!-- Generator: Adobe Illustrator 19.2.1, SVG Export Plug-In . SVG Version: 6.00 Build 0)  -->
<svg version="1.1" id="Calque_1" xmlns="http://www.w3.org/2000/svg" xmlns:xlink="http://www.w3.org/1999/xlink" x="0px" y="0px"
	 viewBox="0 0 1000 1000" style="enable-background:new 0 0 1000 1000;" xml:space="preserve">
<style type="text/css">
	.st0{fill:#1D1D1B;}
</style>
<path class="st0" d="M599.7,233.3c0,0,0-57.2,0-66.7c0-36.7-22.2-55.6-36.1-69.4c-11.7-11.1-50-49.4-61.1-61.1
	C488.6,22.2,469.7,0,433,0c-9.4,0-190.6,0-200,0c-36.7,0-55.6,22.2-69.4,36.1c-11.1,11.7-49.4,50-61.1,61.1
	c-13.9,13.9-36.1,32.8-36.1,69.4c0,9.4,0,20.6,0,33.3c0,22.5,8.3,38.2,18,50.3c-9.7,12.1-18,27.8-18,50.3c0,9.4,0,90,0,99.4
	c0,36.7,22.2,55.6,36.1,69.4c11.7,11.1,50,49.4,61.1,61.1c13.9,13.9,32.8,36.1,69.4,36.1c9.4,0,166.7,0,166.7,0l50,50l-50,50H266.4
	L199.7,600v-33.3H66.4c0,0,0,57.2,0,66.7c0,36.7,22.2,55.6,36.1,69.4c11.7,11.1,50,49.4,61.1,61.1c13.9,13.9,32.8,36.1,69.4,36.1
	c9.4,0,190.6,0,200,0c36.7,0,55.6-22.2,69.4-36.1c11.1-11.7,49.4-50,61.1-61.1c13.9-13.9,36.1-32.8,36.1-69.4c0-9.4,0-20.6,0-33.3
	c0-22.5-8.3-38.2-18-50.3c9.7-12.1,18-27.8,18-50.3c0-9.4,0-90,0-99.4c0-36.7-22.2-55.6-36.1-69.4c-11.7-11.1-50-49.4-61.1-61.1
	c-13.9-13.9-32.8-36.1-69.4-36.1c-9.4,0-166.7,0-166.7,0l-50-50l50-50h133.3l66.7,66.7v33.3H599.7z M399.7,366.7l66.7,66.7v7.3
	c-9.2-4.4-20.1-7.3-33.3-7.3c-9.4,0-166.7,0-166.7,0l-66.7-66.7v-7.3c9.2,4.4,20.1,7.3,33.3,7.3
	C242.5,366.7,399.7,366.7,399.7,366.7z"/>
</svg>
