<?xml version="1.0" encoding="utf-8"?>
<!-- Generator: Adobe Illustrator 19.2.1, SVG Export Plug-In . SVG Version: 6.00 Build 0)  -->
<svg version="1.1" id="Calque_1" xmlns="http://www.w3.org/2000/svg" xmlns:xlink="http://www.w3.org/1999/xlink" x="0px" y="0px"
	 viewBox="0 0 1000 1000" style="enable-background:new 0 0 1000 1000;" xml:space="preserve">
<style type="text/css">
	.st0{stroke:#000000;stroke-width:0.5;stroke-miterlimit:10;}
</style>
<path class="st0" d="M466.4,600v66.7l-233,0V466.6h99.8V333.3h-99.8V200h0.6l65.6-66.7h67.2l65.6,66.7h0.6v65.6h133.3
	c0,0,0-89.4,0-98.9c0-36.7-22.2-55.6-36.1-69.4c-11.7-11.1-50-49.4-61.1-61.1C455,22.2,436.1,0,399.4,0C390,0,276.1,0,266.7,0
	c-36.7,0-55.6,22.2-69.4,36.1c-11.1,11.7-49.4,50-61.1,61.1C122.3,111.1,100,130,100,166.7c0,0.9,0,75.3,0,166.6H66.4v133.3H100
	c0,97.1,0,184.2,0,200.1H66.4V800h433.3c50,0,99.9-49.9,100-99.9V700h0V600H466.4z"/>
</svg>
