<?xml version="1.0" encoding="utf-8"?>
<!-- Generator: Adobe Illustrator 19.2.1, SVG Export Plug-In . SVG Version: 6.00 Build 0)  -->
<svg version="1.1" id="Calque_1" xmlns="http://www.w3.org/2000/svg" xmlns:xlink="http://www.w3.org/1999/xlink" x="0px" y="0px"
	 viewBox="0 0 1000 1000" style="enable-background:new 0 0 1000 1000;" xml:space="preserve">
<style type="text/css">
	.st0{fill:#1D1D1B;}
</style>
<path class="st0" d="M433,600c36.7,0,55.6-22.2,69.4-36.1c11.1-11.7,49.4-50,61.1-61.1c13.9-13.9,36.1-32.8,36.1-69.4
	c0-9.4,0-259.4,0-266.7c0-37.2-22.2-55.6-36.1-69.4c-11.7-11.1-50-49.4-61.1-61.1C488.6,22.2,469.7,0,433,0c-9.4,0-190.6,0-200,0
	c-36.7,0-55.6,22.2-69.4,36.1c-11.1,11.7-49.4,50-61.1,61.1c-13.9,13.9-36.1,32.8-36.1,69.4c0,9.4,0,257.2,0,266.7
	c0,36.7,22.2,55.6,36.1,69.4c11.7,11.1,50,49.4,61.1,61.1c13.9,13.9,32.8,36.1,69.4,36.1c2.3,0,15.2,0,33.3,0c0,0.2,0,0.4,0,0.6
	l-66.7,65.6v0.6H66.4V800c0,0,157.2,0,166.7,0c36.7,0,55.6-22.2,69.4-36.1c5.6-5.9,18.1-18.5,30.6-31c12.5,12.5,25,25.1,30.6,31
	c13.9,13.9,32.8,36.1,69.4,36.1c9.4,0,166.7,0,166.7,0V666.7H466.4v-0.6l-66.7-65.6V600C417.8,600,430.7,600,433,600z M199.7,400.6
	V400v-0.6V200.6v-1.1l66.7-65.6v-0.6h133.3v0.6l66.7,65.6v201.1l-66.7,65.6v0.6H266.4v-0.6L199.7,400.6z"/>
</svg>
