<?xml version="1.0" encoding="utf-8"?>
<!-- Generator: Adobe Illustrator 19.2.1, SVG Export Plug-In . SVG Version: 6.00 Build 0)  -->
<svg version="1.1" id="Calque_1" xmlns="http://www.w3.org/2000/svg" xmlns:xlink="http://www.w3.org/1999/xlink" x="0px" y="0px"
	 viewBox="0 0 1000 1000" style="enable-background:new 0 0 1000 1000;" xml:space="preserve">
<style type="text/css">
	.st0{fill:#1D1D1B;}
</style>
<path class="st0" d="M563.6,97.2c-11.7-11.1-50-49.4-61.1-61.1C488.6,22.2,469.7,0,433,0C423.6,0,66.4,0,66.4,0v800h133.3V466.7h200
	v0.6l66.7,65.6V800h133.3c0,0,0-290.7,0-300c0-36.7-22.2-55.6-36.1-69.4c-11.7-11.1-21.7-21.7-30.6-30.6
	c8.9-8.9,18.9-19.4,30.6-30.6c13.9-13.9,36.1-32.8,36.1-69.4c0-9.4,0-123.9,0-133.3C599.7,130,577.5,111.1,563.6,97.2z M466.4,201.1
	v64.4v1.1h-0.6l-65.6,66.7h-0.6h-200v-200h200.6l65.6,66.7h0.6V201.1z"/>
</svg>
