<?xml version="1.0" encoding="utf-8"?>
<!-- Generator: Adobe Illustrator 19.2.1, SVG Export Plug-In . SVG Version: 6.00 Build 0)  -->
<svg version="1.1" id="Calque_1" xmlns="http://www.w3.org/2000/svg" xmlns:xlink="http://www.w3.org/1999/xlink" x="0px" y="0px"
	 viewBox="0 0 1000 1000" style="enable-background:new 0 0 1000 1000;" xml:space="preserve">
<style type="text/css">
	.st0{fill:#1D1D1B;}
</style>
<g>
	<path class="st0" d="M599.7,183.3V100c0-50-50-100-100-100L66.4,0v366.7h133.3v-50h266.7v50h133.3v-50c0-33.3-33.3-66.7-66.7-66.7
		C566.4,250,599.7,216.7,599.7,183.3z M199.7,133.3h266.7v50H199.7V133.3z"/>
</g>
<g>
	<path class="st0" d="M599.7,616.6v-83.3c0-50-50-100-100-100l-433.3,0V800h133.3v-50h266.7v50h133.3v-50
		c0-33.3-33.3-66.7-66.7-66.7C566.4,683.3,599.7,650,599.7,616.6z M199.7,566.6h266.7v50H199.7V566.6z"/>
</g>
</svg>
