<?xml version="1.0" encoding="utf-8"?>
<!-- Generator: Adobe Illustrator 19.2.1, SVG Export Plug-In . SVG Version: 6.00 Build 0)  -->
<svg version="1.1" id="Calque_1" xmlns="http://www.w3.org/2000/svg" xmlns:xlink="http://www.w3.org/1999/xlink" x="0px" y="0px"
	 viewBox="0 0 1000 1000" style="enable-background:new 0 0 1000 1000;" xml:space="preserve">
<style type="text/css">
	.st0{fill:#1D1D1B;}
</style>
<path class="st0" d="M166.4,800h333.3c50,0,100-50,100-100V500c0-50-33.8-86.8-66.7-100L199.7,288.9V133.3h266.7v133.3l133.3-44.4
	V100c0-50-50-100-100-100H166.4c-50,0-100,50-100,100v200c0,50,33.8,86.8,66.7,100l333.3,111.1v155.6H199.7V533.3L66.4,577.8V700
	C66.4,750,116.4,800,166.4,800z"/>
</svg>
