<?xml version="1.0" encoding="utf-8"?>
<!-- Generator: Adobe Illustrator 19.2.1, SVG Export Plug-In . SVG Version: 6.00 Build 0)  -->
<svg version="1.1" id="Calque_1" xmlns="http://www.w3.org/2000/svg" xmlns:xlink="http://www.w3.org/1999/xlink" x="0px" y="0px"
	 viewBox="0 0 1000 1000" style="enable-background:new 0 0 1000 1000;" xml:space="preserve">
<style type="text/css">
	.st0{fill:#1D1D1B;}
</style>
<g>
	<g>
		<path class="st0" d="M415.4,352.9l-35.1-35.2c-23.6-23.6-70.7-23.6-94.3,0l-35.2,35.2c-23.6,23.6-23.6,70.7,0,94.3l35.2,35.2
			c23.6,23.6,70.7,23.6,94.3,0l35.1-35.2C438.9,423.6,438.9,376.4,415.4,352.9z"/>
		
			<rect x="113.5" y="458.6" transform="matrix(0.7071 0.7071 -0.7071 0.7071 443.7073 34.5149)" class="st0" width="133.3" height="188.6"/>
		
			<rect x="113.6" y="152.9" transform="matrix(-0.7071 0.7071 -0.7071 -0.7071 482.4187 294.4565)" class="st0" width="133.3" height="188.6"/>
		
			<rect x="419.2" y="152.9" transform="matrix(-0.7071 -0.7071 0.7071 -0.7071 654.7448 765.485)" class="st0" width="133.3" height="188.6"/>
		
			<rect x="419.2" y="458.6" transform="matrix(0.7071 -0.7071 0.7071 0.7071 -248.6213 505.494)" class="st0" width="133.3" height="188.6"/>
	</g>
</g>
</svg>
