<?xml version="1.0" encoding="utf-8"?>
<!-- Generator: Adobe Illustrator 19.2.1, SVG Export Plug-In . SVG Version: 6.00 Build 0)  -->
<svg version="1.1" id="Calque_1" xmlns="http://www.w3.org/2000/svg" xmlns:xlink="http://www.w3.org/1999/xlink" x="0px" y="0px"
	 viewBox="0 0 1000 1000" style="enable-background:new 0 0 1000 1000;" xml:space="preserve">
<style type="text/css">
	.st0{fill:#1D1D1B;}
</style>
<g>
	<path class="st0" d="M198,0h-66.7C98,0,64.7,33.3,64.7,66.6v66.7c0,33.3,33.4,66.7,66.7,66.7H198c33.3,0,66.7-33.3,66.7-66.7V66.7
		C264.7,33.3,231.4,0,198,0z"/>
	<path class="st0" d="M531.4,600h-66.7c-33.3,0-66.7,33.3-66.7,66.6v66.7c0,33.3,33.4,66.7,66.7,66.7h66.7
		c33.3,0,66.7-33.3,66.7-66.7v-66.7C598,633.3,564.7,600,531.4,600z"/>
	<path class="st0" d="M364.7,300H298c-33.3,0-66.7,33.3-66.7,66.6v66.7c0,33.3,33.4,66.7,66.7,66.7h66.7c33.3,0,66.7-33.3,66.7-66.7
		v-66.7C431.4,333.3,398,300,364.7,300z"/>
</g>
</svg>
