<?xml version="1.0" encoding="utf-8"?>
<!-- Generator: Adobe Illustrator 19.2.1, SVG Export Plug-In . SVG Version: 6.00 Build 0)  -->
<svg version="1.1" id="Calque_1" xmlns="http://www.w3.org/2000/svg" xmlns:xlink="http://www.w3.org/1999/xlink" x="0px" y="0px"
	 viewBox="0 0 1000 1000" style="enable-background:new 0 0 1000 1000;" xml:space="preserve">
<g>
	<rect x="66.4" width="133.3" height="133.3"/>
	<rect x="466.4" width="133.3" height="133.3"/>
	<path d="M466.4,200v400.6l-66.7,65.6v0.6H266.4v-0.6l-66.7-65.6v-0.8V200H66.4c0,0,0,423.9,0,433.3c0,37.2,22.2,55.6,36.1,69.4
		c11.7,11.1,50,49.4,61.1,61.1c13.9,13.9,32.8,36.1,69.4,36.1c9.4,0,190.6,0,200,0c36.7,0,55.6-22.2,69.4-36.1
		c11.1-11.7,49.4-50,61.1-61.1c13.9-13.9,36.1-32.8,36.1-69.4c0-9.4,0-433.3,0-433.3H466.4z"/>
</g>
</svg>
