<?xml version="1.0" encoding="utf-8"?>
<!-- Generator: Adobe Illustrator 19.2.1, SVG Export Plug-In . SVG Version: 6.00 Build 0)  -->
<svg version="1.1" id="Calque_1" xmlns="http://www.w3.org/2000/svg" xmlns:xlink="http://www.w3.org/1999/xlink" x="0px" y="0px"
	 viewBox="0 0 1000 1000" style="enable-background:new 0 0 1000 1000;" xml:space="preserve">
<style type="text/css">
	.st0{fill:#1D1D1B;}
</style>
<path class="st0" d="M466.3,0v533.3h-0.6L333,667L200.2,533.3h-0.6V0H66.3c0,0,0,557.2,0,566.7c0,36.7,22.2,55.6,36.1,69.4
	c11.7,11.1,116.7,116.1,127.8,127.8c13.9,13.9,32.8,36.1,69.4,36.1c9.4,0,53.9,0,66.7,0c36.7,0,55.6-22.2,69.4-36.1
	c11.1-11.7,117.4-117.9,127.8-127.8c13.9-13.9,36.1-32.8,36.1-69.4c0-9.4,0-566.7,0-566.7H466.3z"/>
</svg>
