<?xml version="1.0" encoding="utf-8"?>
<!-- Generator: Adobe Illustrator 19.2.1, SVG Export Plug-In . SVG Version: 6.00 Build 0)  -->
<svg version="1.1" id="Calque_1" xmlns="http://www.w3.org/2000/svg" xmlns:xlink="http://www.w3.org/1999/xlink" x="0px" y="0px"
	 viewBox="0 0 1000 1000" style="enable-background:new 0 0 1000 1000;" xml:space="preserve">
<style type="text/css">
	.st0{fill:#1D1D1B;}
</style>
<path class="st0" d="M563.5,269.4c13.9-13.9,36.1-32.8,36.1-69.4c0-9.4,0-200,0-200H466.3v166.7h-0.6L333,300.2L200.2,166.7h-0.6V0
	H66.3c0,0,0,190.6,0,200c0,36.7,22.2,55.6,36.1,69.4C114.1,280.6,232,399,233,400c-0.9,1-118.9,119.4-130.5,130.6
	c-13.9,13.9-36.1,32.8-36.1,69.4c0,9.4,0,200,0,200h133.3V633.3h0.6L333,499.8l132.8,133.5h0.6V800h133.3c0,0,0-190.6,0-200
	c0-36.7-22.2-55.6-36.1-69.4C551.9,519.4,434,401,433,400C434,399,551.9,280.6,563.5,269.4z"/>
</svg>
