<?xml version="1.0" encoding="utf-8"?>
<!-- Generator: Adobe Illustrator 19.2.1, SVG Export Plug-In . SVG Version: 6.00 Build 0)  -->
<svg version="1.1" id="Calque_1" xmlns="http://www.w3.org/2000/svg" xmlns:xlink="http://www.w3.org/1999/xlink" x="0px" y="0px"
	 viewBox="0 0 1000 1000" style="enable-background:new 0 0 1000 1000;" xml:space="preserve">
<style type="text/css">
	.st0{fill:#1D1D1B;}
</style>
<path class="st0" d="M533,533.3V400H399.2v-66.7c12.8,0,24.3,0,33.8,0c36.7,0,55.6-22.2,69.4-36.1c11.1-11.7,49.4-50,61.1-61.1
	c13.9-13.9,36.1-32.8,36.1-69.4c0-9.4,0-166.7,0-166.7H466.3v133.3L400.2,200H266.6l-66.9-66.7V0H66.3c0,0,0,157.2,0,166.7
	c0,36.7,22.2,55.6,36.1,69.4c11.7,11.1,50,49.4,61.1,61.1c13.9,13.9,32.8,36.1,69.4,36.1c9.4,0,21.4,0,34.2,0V400H133v133.3h134.2
	V600H133v133.3h134.2V800h132.1v-66.7H533V600H399.2v-66.7H533z"/>
</svg>
