<?xml version="1.0" encoding="utf-8"?>
<!-- Generator: Adobe Illustrator 19.2.1, SVG Export Plug-In . SVG Version: 6.00 Build 0)  -->
<svg version="1.1" id="Calque_1" xmlns="http://www.w3.org/2000/svg" xmlns:xlink="http://www.w3.org/1999/xlink" x="0px" y="0px"
	 viewBox="0 0 1000 1000" style="enable-background:new 0 0 1000 1000;" xml:space="preserve">
<style type="text/css">
	.st0{fill:#1D1D1B;}
</style>
<path class="st0" d="M66.4,133.3h400v66.6c0,0,0,0-154.5,126.4L133,266.7V400l63,21c-28.9,23.7-60.9,49.8-96.4,78.8
	c-20.5,16.8-33.3,45.4-33.3,78V800h133.3h400V666.7h-400V600c0,0,0,0,154.4-126.3L533,533.3V400l-63.1-21
	c28.9-23.7,60.9-49.8,96.4-78.9c20.5-16.8,33.3-45.4,33.3-78V0H66.4V133.3z"/>
</svg>
