<?xml version="1.0" encoding="utf-8"?>
<!-- Generator: Adobe Illustrator 22.1.0, SVG Export Plug-In . SVG Version: 6.00 Build 0)  -->
<svg version="1.1" id="Calque_1" xmlns="http://www.w3.org/2000/svg" xmlns:xlink="http://www.w3.org/1999/xlink" x="0px" y="0px"
	 viewBox="0 0 1000 1000" style="enable-background:new 0 0 1000 1000;" xml:space="preserve">
<style type="text/css">
	.st0{fill:#1D1D1B;}
</style>
<path class="st0" d="M563.5,269.4c13.9-13.9,36.1-32.8,36.1-69.4c0-12.8,0-23.9,0-33.3c0-36.7-22.2-55.6-36.1-69.4
	c-11.7-11.1-50-49.4-61.1-61.1C488.5,22.2,469.6,0,433,0C423.5,0,66.3,0,66.3,0v133.3h333.9l49.2,50L300,333.3H66.3v133.3h100
	c-0.9,1,0,0-63.9,63.9c-13.9,13.9-36.1,32.8-36.1,69.4c0,12.8,0,23.9,0,33.3c0,36.7,22.2,55.6,36.1,69.4
	c11.7,11.1,50,49.4,61.1,61.1c13.9,13.9,32.8,36.1,69.4,36.1c9.4,0,366.7,0,366.7,0V666.7H265.8l-49.2-50l149.7-150h233.3V333.3
	h-99.9C499.7,333.3,551.9,280.6,563.5,269.4z"/>
</svg>
