<?xml version="1.0" encoding="utf-8"?>
<!-- Generator: Adobe Illustrator 19.2.1, SVG Export Plug-In . SVG Version: 6.00 Build 0)  -->
<svg version="1.1" id="Calque_1" xmlns="http://www.w3.org/2000/svg" xmlns:xlink="http://www.w3.org/1999/xlink" x="0px" y="0px"
	 viewBox="0 0 1000 1000" style="enable-background:new 0 0 1000 1000;" xml:space="preserve">
<style type="text/css">
	.st0{stroke:#000000;stroke-width:0.5;stroke-miterlimit:10;}
</style>
<path class="st0" d="M599.8,0c0,0-366.7,0-366.8,0c-36.7,0-55.6,22.2-69.4,36.1c-11.1,11.7-49.4,50-61.1,61.1
	c-13.9,13.9-36.1,32.8-36.1,69.4c0,2.5,0,633.4,0,633.4h133.3l0-600.6l66.7-65.5v-0.6h166.7l-166.7,200v133.3h200v200h-200V800
	h233.3c50,0,99.9-49.9,100-99.9V433.3c0-50-49.9-99.9-99.9-100h-66.7l166.7-200V0z"/>
</svg>
