<?xml version="1.0" encoding="utf-8"?>
<!-- Generator: Adobe Illustrator 19.2.1, SVG Export Plug-In . SVG Version: 6.00 Build 0)  -->
<svg version="1.1" id="Calque_1" xmlns="http://www.w3.org/2000/svg" xmlns:xlink="http://www.w3.org/1999/xlink" x="0px" y="0px"
	 viewBox="0 0 1000 1000" style="enable-background:new 0 0 1000 1000;" xml:space="preserve">
<style type="text/css">
	.st0{fill:#1D1D1B;}
</style>
<path class="st0" d="M533,466.7V333.3h-66.7v-66.7H333v66.7H199.7v-200H333V200h133.3V100c0-50-50-100-99.9-100H166.1
	c-49.9,0.1-99.8,50.1-99.8,100v233.3c0,33.3,33.3,66.7,66.7,66.7c-33.3,0-66.7,33.3-66.7,66.7V700c0,49.9,49.9,99.9,99.8,100H333
	c33.3,0,66.7-33.3,66.7-66.7c0,33.3,33.3,66.7,66.7,66.7H533V666.7h-66.7v-200H533z M199.7,666.7v-200H333v200H199.7z"/>
</svg>
