<?xml version="1.0" encoding="utf-8"?>
<!-- Generator: Adobe Illustrator 19.2.1, SVG Export Plug-In . SVG Version: 6.00 Build 0)  -->
<svg version="1.1" id="Calque_1" xmlns="http://www.w3.org/2000/svg" xmlns:xlink="http://www.w3.org/1999/xlink" x="0px" y="0px"
	 viewBox="0 0 1000 1000" style="enable-background:new 0 0 1000 1000;" xml:space="preserve">
<style type="text/css">
	.st0{fill:#1D1D1B;stroke:#1D1D1B;stroke-width:0.5;stroke-miterlimit:10;}
</style>
<path class="st0" d="M333,0C149.7,0,66.3,83.3,66.3,266.7v266.7C66.3,716.7,149.7,800,333,800s266.7-83.3,266.7-266.7V266.7
	C599.7,83.3,516.3,0,333,0z M333,133.3c77.3,0,119,29.6,130.2,93.8L199.7,408.3V266.7C199.7,175,241.3,133.3,333,133.3z
	 M466.3,533.3c0,91.7-41.7,133.3-133.3,133.3c-77.3,0-119-29.6-130.2-93.8l263.6-181.1V533.3z"/>
</svg>
