<?xml version="1.0" encoding="utf-8"?>
<!-- Generator: Adobe Illustrator 19.2.1, SVG Export Plug-In . SVG Version: 6.00 Build 0)  -->
<svg version="1.1" id="Calque_1" xmlns="http://www.w3.org/2000/svg" xmlns:xlink="http://www.w3.org/1999/xlink" x="0px" y="0px"
	 viewBox="0 0 1000 1000" style="enable-background:new 0 0 1000 1000;" xml:space="preserve">
<style type="text/css">
	.st0{fill:#1D1D1B;}
</style>
<path class="st0" d="M533,400c33.3,0,66.7-33.3,66.7-66.7V100c0-50-50-100-100-100H166.4c-50,0-100,50-100,100v100h133.3v-66.7
	h266.5v200H266.4v133.4h199.9v200H199.7V600H66.4v100c0,50,50,100,100,100h333.3c50,0,100-50,100-100V466.7
	C599.7,433.3,566.3,400,533,400L533,400L533,400z"/>
</svg>
