<?xml version="1.0" encoding="utf-8"?>
<!-- Generator: Adobe Illustrator 19.2.1, SVG Export Plug-In . SVG Version: 6.00 Build 0)  -->
<svg version="1.1" id="Calque_1" xmlns="http://www.w3.org/2000/svg" xmlns:xlink="http://www.w3.org/1999/xlink" x="0px" y="0px"
	 viewBox="0 0 1000 1000" style="enable-background:new 0 0 1000 1000;" xml:space="preserve">
<style type="text/css">
	.st0{fill:#1D1D1B;}
</style>
<path class="st0" d="M66.4,567.4C66.6,727.3,139.5,800,299.7,800h66.7c160.4,0,233.3-72.6,233.3-233c0-160.4-72.9-233.7-233.3-233.7
	h-66.7c-38.3,0-71.5,4.2-100,12.7V233.3c0-68.8,31.3-100,100-100h66.7c68.7,0,100,31.3,100,100v33.3h133.3v-33.3
	C599.7,72.9,526.8,0,366.4,0l-66.7,0C139.3,0,66.4,72.9,66.4,233.3L66.4,567.4z M299.7,466.7h66.7c68.8,0,100,31.3,100,100
	c0,68.8-31.3,100-100,100h-66.7c-68.8,0-100-31.3-100-100C199.7,497.9,230.9,466.7,299.7,466.7z"/>
</svg>
