<?xml version="1.0" encoding="utf-8"?>
<!-- Generator: Adobe Illustrator 19.2.1, SVG Export Plug-In . SVG Version: 6.00 Build 0)  -->
<svg version="1.1" id="Calque_1" xmlns="http://www.w3.org/2000/svg" xmlns:xlink="http://www.w3.org/1999/xlink" x="0px" y="0px"
	 viewBox="0 0 1000 1000" style="enable-background:new 0 0 1000 1000;" xml:space="preserve">
<style type="text/css">
	.st0{fill:#1D1D1B;stroke:#1D1D1B;stroke-width:0.5;stroke-miterlimit:10;}
</style>
<path class="st0" d="M499.7,0H166.1c-49.9,0.1-99.8,50.1-99.8,100l0,233.3c0,33.3,33.3,66.7,66.7,66.7c-33.3,0-66.7,33.3-66.7,66.7
	l0,233.3c0,49.9,49.9,99.9,99.8,100l333.6,0c50,0,99.9-50,99.9-100V466.7c0-33.3-33.3-66.7-66.7-66.7c33.3,0,66.7-33.3,66.7-66.7
	V100C599.7,50,549.7,0,499.7,0z M466.2,666.7H199.7v-200h266.5V666.7z M466.3,333.3H199.7v-200h266.7V333.3z"/>
</svg>
