<?xml version="1.0" encoding="utf-8"?>
<!-- Generator: Adobe Illustrator 19.2.1, SVG Export Plug-In . SVG Version: 6.00 Build 0)  -->
<svg version="1.1" id="Calque_1" xmlns="http://www.w3.org/2000/svg" xmlns:xlink="http://www.w3.org/1999/xlink" x="0px" y="0px"
	 viewBox="0 0 1000 1000" style="enable-background:new 0 0 1000 1000;" xml:space="preserve">
<style type="text/css">
	.st0{fill:#1D1D1B;}
</style>
<path class="st0" d="M599.7,233.3C599.7,72.9,526.7,0,366.3,0h-66.7C139.2,0,66.3,72.9,66.3,233.3c0,73.5,15.4,128.5,47.4,166.7
	c-32,38.2-47.4,93.2-47.4,166.7c0,160.4,72.9,233.3,233.3,233.3h66.7c160.4,0,233.3-72.9,233.3-233.3c0-73.5-15.4-128.5-47.4-166.7
	C584.3,361.8,599.7,306.8,599.7,233.3z M299.7,133.3h66.7c68.8,0,100,31.3,100,100c0,68.7-31.3,100-100,100c0,0,0,0.3,0,0.7h-66.7
	v-0.7c-68.8,0-100-31.3-100-100C199.7,164.6,230.9,133.3,299.7,133.3z M366.3,666.7h-66.7c-68.8,0-100-31.3-100-100
	c0-68.8,31.3-100,100-100c0,0,0-0.3,0-0.7h66.7v0.7c68.8,0,100,31.3,100,100C466.3,635.4,435.1,666.7,366.3,666.7z"/>
</svg>
