<?xml version="1.0" encoding="utf-8"?>
<!-- Generator: Adobe Illustrator 19.2.1, SVG Export Plug-In . SVG Version: 6.00 Build 0)  -->
<svg version="1.1" id="Calque_1" xmlns="http://www.w3.org/2000/svg" xmlns:xlink="http://www.w3.org/1999/xlink" x="0px" y="0px"
	 viewBox="0 0 1000 1000" style="enable-background:new 0 0 1000 1000;" xml:space="preserve">
<style type="text/css">
	.st0{fill:#1D1D1B;}
</style>
<path class="st0" d="M599.7,232.6C599.5,72.7,526.5,0,366.4,0l-66.7,0C139.3,0,66.4,72.6,66.4,233c0,160.4,72.9,233.7,233.3,233.7
	h66.7c38.3,0,71.5-4.2,100-12.7v112.7c0,68.8-31.3,100-100,100h-66.7c-68.7,0-100-31.3-100-100v-33.3H66.4v33.3
	c0,160.4,72.9,233.3,233.3,233.3h66.7c160.4,0,233.3-72.9,233.3-233.3L599.7,232.6z M366.4,333.3h-66.7c-68.8,0-100-31.3-100-100
	c0-68.8,31.3-100,100-100h66.7c68.8,0,100,31.3,100,100C466.4,302.1,435.1,333.3,366.4,333.3z"/>
</svg>
