<?xml version="1.0" encoding="utf-8"?>
<!-- Generator: Adobe Illustrator 19.2.1, SVG Export Plug-In . SVG Version: 6.00 Build 0)  -->
<svg version="1.1" id="Calque_1" xmlns="http://www.w3.org/2000/svg" xmlns:xlink="http://www.w3.org/1999/xlink" x="0px" y="0px"
	 viewBox="0 0 1000 1000" style="enable-background:new 0 0 1000 1000;" xml:space="preserve">
<style type="text/css">
	.st0{fill:#1D1D1B;}
</style>
<path class="st0" d="M537.2,400c42.3-28.5,62.4-79.2,62.4-166.7C599.7,72.9,526.7,0,366.3,0h-300v800l300,0v0
	c160.4,0,233.3-72.9,233.3-233.3C599.7,479.2,579.5,428.5,537.2,400z M366.3,133.3c68.7,0,100,31.3,100,100c0,100-31.3,100-100,100
	l-166.7,0v-200H366.3z M366.3,666.7L366.3,666.7l-166.7,0v-200l166.7,0c68.7,0,100,0,100,100C466.3,635.4,435.1,666.7,366.3,666.7z"
	/>
</svg>
