<?xml version="1.0" encoding="utf-8"?>
<!-- Generator: Adobe Illustrator 19.2.1, SVG Export Plug-In . SVG Version: 6.00 Build 0)  -->
<svg version="1.1" id="Calque_1" xmlns="http://www.w3.org/2000/svg" xmlns:xlink="http://www.w3.org/1999/xlink" x="0px" y="0px"
	 viewBox="0 0 1000 1000" style="enable-background:new 0 0 1000 1000;" xml:space="preserve">
<style type="text/css">
	.st0{fill:#1D1E1C;}
</style>
<path class="st0" d="M366.3,400h-66.7c-68.7,0-100-31.3-100-100v-66.7c0-68.7,31.2-100,100-100h66.7c68.7,0,100,31.3,100,100h133.3
	C599.7,72.9,526.7,0,366.3,0C360,0,306,0,299.6,0C139.2,0,66.3,72.9,66.3,233.3V300c0,148.8,62.8,222.3,200,232.1v134.6h133.3v66.7
	H266.3V800h200c33.3,0,66.7-33.2,66.7-66.6v-66.7c0-33.3-33.3-66.7-66.7-66.7h-66.7v-67.9c137.2-9.8,200-83.3,200-232.1H466.3
	C466.3,368.7,435.1,400,366.3,400z"/>
</svg>
