<?xml version="1.0" encoding="utf-8"?>
<!-- Generator: Adobe Illustrator 19.2.1, SVG Export Plug-In . SVG Version: 6.00 Build 0)  -->
<svg version="1.1" id="Calque_1" xmlns="http://www.w3.org/2000/svg" xmlns:xlink="http://www.w3.org/1999/xlink" x="0px" y="0px"
	 viewBox="0 0 1000 1000" style="enable-background:new 0 0 1000 1000;" xml:space="preserve">
<style type="text/css">
	.st0{fill:#1D1D1B;stroke:#1D1D1B;stroke-width:0.5;stroke-miterlimit:10;}
</style>
<path class="st0" d="M499.7,0H166.4c-50,0-100,50-100,100v333.3c0,50,50,100,100,100l100,0v133.3h133.3h0v66.7H266.4V800h200
	c33.3,0,66.7-33.3,66.7-66.7l0-66.7c0-33.3-33.3-66.7-66.7-66.7h-66.7h0v-66.7l100,0c50,0,100-50,100-100v-100H466.4V400H199.4
	V133.3h266.9V200h133.3l0-100C599.7,50,549.7,0,499.7,0z"/>
</svg>
