<?xml version="1.0" encoding="utf-8"?>
<!-- Generator: Adobe Illustrator 19.2.1, SVG Export Plug-In . SVG Version: 6.00 Build 0)  -->
<svg version="1.1" id="Calque_1" xmlns="http://www.w3.org/2000/svg" xmlns:xlink="http://www.w3.org/1999/xlink" x="0px" y="0px"
	 viewBox="0 0 1000 1000" style="enable-background:new 0 0 1000 1000;" xml:space="preserve">
<style type="text/css">
	.st0{fill:#1D1D1B;stroke:#1D1D1B;stroke-width:0.5;stroke-miterlimit:10;}
</style>
<path class="st0" d="M238.6,266.7v66.7c0,33.3,33.3,66.7,66.7,66.7h66.7c33.3,0,66.7-33.3,66.7-66.7v-66.7
	c0-33.3-33.3-66.7-66.7-66.7h-66.7C271.9,200,238.6,233.3,238.6,266.7z"/>
<path class="st0" d="M238.6,666.7v66.7c0,33.3,33.3,66.7,66.7,66.7h66.7c33.3,0,66.7-33.3,66.7-66.7v-66.7
	c0-33.3-33.3-66.7-66.7-66.7h-66.7C271.9,600,238.6,633.3,238.6,666.7z"/>
</svg>
