<?xml version="1.0" encoding="utf-8"?>
<!-- Generator: Adobe Illustrator 19.2.1, SVG Export Plug-In . SVG Version: 6.00 Build 0)  -->
<svg version="1.1" id="Calque_1" xmlns="http://www.w3.org/2000/svg" xmlns:xlink="http://www.w3.org/1999/xlink" x="0px" y="0px"
	 viewBox="0 0 1000 1000" style="enable-background:new 0 0 1000 1000;" xml:space="preserve">
<style type="text/css">
	.st0{fill:#1D1D1B;}
</style>
<g>
	<path class="st0" d="M599.5,433.3H466.3V500h-66.7c0-33.3-33.3-66.7-66.7-66.7H166.3c-50,0-100,50-100,100v100h133.3v-66.7h66.7
		c0,33.3,33.3,66.7,66.7,66.7h166.7c50,0,100-50,100-100L599.5,433.3z"/>
	<path class="st0" d="M599.5,166.7H466.3v66.7h-66.7c0-33.3-33.3-66.7-66.7-66.7H166.3c-50,0-100,50-100,100v100h133.3V300h66.7
		c0,33.3,33.3,66.7,66.7,66.7h166.7c50,0,100-50,100-100L599.5,166.7z"/>
</g>
</svg>
