<?xml version="1.0" encoding="utf-8"?>
<!-- Generator: Adobe Illustrator 19.2.1, SVG Export Plug-In . SVG Version: 6.00 Build 0)  -->
<svg version="1.1" id="Calque_1" xmlns="http://www.w3.org/2000/svg" xmlns:xlink="http://www.w3.org/1999/xlink" x="0px" y="0px"
	 viewBox="0 0 1000 1000" style="enable-background:new 0 0 1000 1000;" xml:space="preserve">
<style type="text/css">
	.st0{fill:#1D1D1B;}
</style>
<g>
	<path class="st0" d="M560.4,307.1c10.9-24.8,7.1-58.3-11.6-77l-47.1-47.1c-18.6-18.6-51.7-22.4-76.4-11.8
		c-11.7-21.3-35.4-37.8-59.1-37.8h-66.7c-24,0-47.9,16.9-59.5,38.6c-24.7-10.3-57.3-6.3-75.7,12.1l-47.1,47.1
		c-18.5,18.5-22.4,51.3-11.9,76c-21.8,11.5-38.9,35.5-38.9,59.6v66.7c0,24.1,17.2,48.2,39,59.7c-10.8,24.8-6.9,58.1,11.7,76.7
		l47.1,47.1c18.6,18.6,51.7,22.4,76.4,11.8c11.7,21.3,35.4,37.8,59.1,37.8h66.7c24,0,47.9-16.9,59.5-38.6
		c24.7,10.3,57.3,6.3,75.7-12.1l47.1-47.1c18.4-18.4,22.4-51.1,12.1-75.8c21.7-11.5,38.8-35.5,38.8-59.6v-66.7
		C599.5,342.7,582.3,318.5,560.4,307.1z M399.6,466.7l-66.7-33.3l-66.6,33.3l33.3-66.7l-33.3-66.7l66.7,33.3l66.7-33.3L366.3,400
		L399.6,466.7z"/>
</g>
</svg>
