<?xml version="1.0" encoding="utf-8"?>
<!-- Generator: Adobe Illustrator 19.2.1, SVG Export Plug-In . SVG Version: 6.00 Build 0)  -->
<svg version="1.1" id="Calque_1" xmlns="http://www.w3.org/2000/svg" xmlns:xlink="http://www.w3.org/1999/xlink" x="0px" y="0px"
	 viewBox="0 0 1000 1000" style="enable-background:new 0 0 1000 1000;" xml:space="preserve">
<style type="text/css">
	.st0{fill:#1D1D1B;stroke:#1D1D1B;stroke-width:0.5;stroke-miterlimit:10;}
</style>
<g>
	<path class="st0" d="M569.1,66.7c0-33.3-33.3-66.7-66.7-66.7h-66.7c-33.3,0-66.7,33.3-66.7,66.7v66.7c0,11.6,4.1,23.1,10.7,33.3
		l55.9,100h66.7l55.9-100c6.7-10.2,10.7-21.7,10.7-33.3V66.7z"/>
	<path class="st0" d="M302.5,66.7c0-33.3-33.3-66.7-66.7-66.7h-66.7c-33.3,0-66.7,33.3-66.7,66.7v66.7c0,11.6,4.1,23.1,10.7,33.3
		l55.9,100h66.7l55.9-100c6.7-10.2,10.7-21.7,10.7-33.3V66.7z"/>
</g>
</svg>
