<?xml version="1.0" encoding="utf-8"?>
<!-- Generator: Adobe Illustrator 19.2.1, SVG Export Plug-In . SVG Version: 6.00 Build 0)  -->
<svg version="1.1" id="Calque_1" xmlns="http://www.w3.org/2000/svg" xmlns:xlink="http://www.w3.org/1999/xlink" x="0px" y="0px"
	 viewBox="0 0 1000 1000" style="enable-background:new 0 0 1000 1000;" xml:space="preserve">
<style type="text/css">
	.st0{fill:#1D1D1B;}
</style>
<g>
	<path class="st0" d="M499.9,200L499.9,200l-100.3,0v0c-33.3,0-66.6,33.3-66.6,66.7h0c0-33.3-33.3-66.6-66.6-66.7v0H166v0
		c-49.9,0.2-99.7,50.1-99.7,100v200c0,49.9,49.8,99.8,99.8,100v0h100.3v0c33.3-0.1,66.6-33.4,66.6-66.7h0
		c0,33.3,33.3,66.6,66.6,66.7v0h100.3v0c49.9-0.1,99.8-50.1,99.8-100V300C599.7,250.1,549.8,200.2,499.9,200z M266.2,466.7h-66.6
		V333.3h66.6V466.7z M466.3,466.7h-66.7V333.3h66.7V466.7z"/>
</g>
</svg>
