<?xml version="1.0" encoding="utf-8"?>
<!-- Generator: Adobe Illustrator 19.2.1, SVG Export Plug-In . SVG Version: 6.00 Build 0)  -->
<svg version="1.1" id="Calque_1" xmlns="http://www.w3.org/2000/svg" xmlns:xlink="http://www.w3.org/1999/xlink" x="0px" y="0px"
	 viewBox="0 0 1000 1000" style="enable-background:new 0 0 1000 1000;" xml:space="preserve">
<style type="text/css">
	.st0{fill:#1D1D1B;stroke:#1D1D1B;stroke-width:0.5;stroke-miterlimit:10;}
</style>
<path class="st0" d="M499.8,0L499.8,0L166.4,0v0c-50,0-100,50-100,100v100h133.3v-66.7h266.7v133.3h-99.9v0
	c-49.9,0.1-99.8,50.1-99.8,100h-0.3v100h0l33.3,66.7h66.7l33.3-66.7l0,0V400h100.1v0c50,0,99.9-50,99.9-100V100
	C599.7,50,549.7,0.1,499.8,0z"/>
<path class="st0" d="M366.3,800c33.3,0,66.7-33.3,66.7-66.7v-66.7c0-33.3-33.3-66.7-66.7-66.7h-66.7c-33.3,0-66.7,33.3-66.7,66.7
	v66.7c0,33.3,33.3,66.7,66.7,66.7H366.3z"/>
</svg>
