<?xml version="1.0" encoding="utf-8"?>
<!-- Generator: Adobe Illustrator 19.2.1, SVG Export Plug-In . SVG Version: 6.00 Build 0)  -->
<svg version="1.1" id="Calque_1" xmlns="http://www.w3.org/2000/svg" xmlns:xlink="http://www.w3.org/1999/xlink" x="0px" y="0px"
	 viewBox="0 0 1000 1000" style="enable-background:new 0 0 1000 1000;" xml:space="preserve">
<path d="M599.7,399.7L599.7,399.7c-0.7-17-4-33-10.6-47.3L441.7,57.8C424,25,388.9,0,352.8,0h-39.7c-36.1,0-71.2,25-89,57.8
	L76.9,352.5c-6.6,14.3-9.9,30.2-10.6,47.2l0,0c0,0.1,0,0.2,0,0.3c0,0.1,0,0.2,0,0.3l0,0c0.6,17,3.9,33,10.5,47.3l147.3,294.6
	c17.8,32.8,52.8,57.8,89,57.8h39.7c36.1,0,71.2-25,89-57.8l147.3-294.6c6.6-14.3,9.9-30.2,10.5-47.3l0,0c0-0.1,0-0.2,0-0.3
	S599.7,399.8,599.7,399.7z M333,666.7L199.6,400l133.3-266.7L466.3,400L333,666.7z"/>
</svg>
