<?xml version="1.0" encoding="utf-8"?>
<!-- Generator: Adobe Illustrator 19.2.1, SVG Export Plug-In . SVG Version: 6.00 Build 0)  -->
<svg version="1.1" id="Calque_1" xmlns="http://www.w3.org/2000/svg" xmlns:xlink="http://www.w3.org/1999/xlink" x="0px" y="0px"
	 viewBox="0 0 1000 1000" style="enable-background:new 0 0 1000 1000;" xml:space="preserve">
<style type="text/css">
	.st0{fill:#1D1D1B;}
	.st1{fill:#1D1D1B;stroke:#1D1D1B;stroke-width:0.5;stroke-miterlimit:10;}
</style>
<g>
	<path class="st0" d="M366.4,200c-6.4,0-60.3,0-66.7,0c-160.4,0-233.3,72.9-233.3,233.3v133.3c0,160.4,72.9,233.3,233.3,233.3
		c6.4,0,60.3,0,66.7,0c160.4,0,233.3-72.9,233.3-233.3V433.3C599.7,272.9,526.8,200,366.4,200z M366.4,666.7h-66.7
		c-68.7,0-100-31.3-100-100V433.3c0-68.7,31.3-100,100-100h66.7c68.7,0,100,31.3,100,100v133.3C466.4,635.4,435.1,666.7,366.4,666.7
		z"/>
	<rect x="66.4" class="st1" width="133.3" height="133.3"/>
	<rect x="466.4" class="st1" width="133.3" height="133.3"/>
</g>
</svg>
