<?xml version="1.0" encoding="utf-8"?>
<!-- Generator: Adobe Illustrator 19.2.1, SVG Export Plug-In . SVG Version: 6.00 Build 0)  -->
<svg version="1.1" id="Calque_1" xmlns="http://www.w3.org/2000/svg" xmlns:xlink="http://www.w3.org/1999/xlink" x="0px" y="0px"
	 viewBox="0 0 1000 1000" style="enable-background:new 0 0 1000 1000;" xml:space="preserve">
<style type="text/css">
	.st0{fill:#1D1D1B;}
</style>
<path class="st0" d="M366.3,0c-6.4,0-60.3,0-66.7,0C139.2,0,66.3,72.9,66.3,233.3v333.3c0,160.4,72.9,233.3,233.3,233.3
	c6.4,0,60.3,0,66.7,0c160.4,0,233.3-72.9,233.3-233.3V233.3C599.6,72.9,526.7,0,366.3,0z M199.6,233.3c0-68.7,31.3-100,100-100h66.7
	c12,0,22.7,1,32.4,2.9L199.6,533.6V233.3z M466.3,566.7c0,68.7-31.3,100-100,100h-66.7c-12,0-22.7-1-32.4-2.9l199.1-397.3V566.7z"/>
</svg>
