<?xml version="1.0" encoding="utf-8"?>
<!-- Generator: Adobe Illustrator 19.2.1, SVG Export Plug-In . SVG Version: 6.00 Build 0)  -->
<svg version="1.1" id="Calque_1" xmlns="http://www.w3.org/2000/svg" xmlns:xlink="http://www.w3.org/1999/xlink" x="0px" y="0px"
	 viewBox="0 0 1000 1000" style="enable-background:new 0 0 1000 1000;" xml:space="preserve">
<style type="text/css">
	.st0{fill:#1D1D1B;}
</style>
<path class="st0" d="M599.7,133.3V0c0,0-296.8,0-300,0C139.2,0,66.3,72.9,66.3,233.3v333.3c0,160.4,72.9,233.3,233.3,233.3
	c3.2,0,300,0,300,0V666.7H466.3v-200h100V333.3h-100v-200H599.7z M333,666.7L333,666.7l-33.3,0c-68.7,0-100-31.3-100-100V233.3
	c0-68.7,31.3-100,100-100H333v0V666.7z"/>
</svg>
