<?xml version="1.0" encoding="utf-8"?>
<!-- Generator: Adobe Illustrator 19.2.1, SVG Export Plug-In . SVG Version: 6.00 Build 0)  -->
<svg version="1.1" id="Calque_1" xmlns="http://www.w3.org/2000/svg" xmlns:xlink="http://www.w3.org/1999/xlink" x="0px" y="0px"
	 viewBox="0 0 1000 1000" style="enable-background:new 0 0 1000 1000;" xml:space="preserve">
<path d="M599.7,200V100c0-50-50-100-100-100H166.4c-50,0-100,50-100,100v133.3c0,33.4,33.3,66.7,66.7,66.7
	c-33.4,0-66.7,33.3-66.7,66.7v100c0,50,50,100,100,100h300v100H199.7V600H66.4v100c0,50,50,100,100,100h333.3c50,0,100-50,100-100
	V566.7c0-33.3-33.3-66.7-66.7-66.7c33.3,0,66.7-33.3,66.7-66.7v-100c0-50-50-100-100-100h-300v-100h266.7V200H599.7z M200.7,433.3
	v-66.7h265.7v66.7H200.7z"/>
</svg>
