<?xml version="1.0" encoding="utf-8"?>
<!-- Generator: Adobe Illustrator 22.1.0, SVG Export Plug-In . SVG Version: 6.00 Build 0)  -->
<svg version="1.1" id="Calque_1" xmlns="http://www.w3.org/2000/svg" xmlns:xlink="http://www.w3.org/1999/xlink" x="0px" y="0px"
	 viewBox="0 0 1000 1000" style="enable-background:new 0 0 1000 1000;" xml:space="preserve">
<style type="text/css">
	.st0{fill:#1D1D1B;stroke:#1D1D1B;stroke-width:0.5;stroke-miterlimit:10;}
</style>
<path class="st0" d="M599.6,233.3C599.6,72.9,526.7,0,366.3,0c-6.4,0-60.3,0-66.7,0C139.2,0,66.3,72.9,66.3,233.3v333.3
	c0,160.4,72.9,233.3,233.3,233.3c6.4,0,60.3,0,66.7,0c34.8,0,65.5-3.4,92.2-10.5l7.8,10.5l133.3,0l-48.7-65
	c32.9-38.2,48.7-93.8,48.7-168.4V233.3z M399.6,533.3H266.3l100,133.3h-66.7c-68.7,0-100-31.3-100-100V233.3
	c0-68.7,31.3-100,100-100h66.7c68.7,0,100,31.3,100,100v333.3c0,18.1-2.2,33.6-6.7,46.6L399.6,533.3z"/>
</svg>
