<?xml version="1.0" encoding="utf-8"?>
<!-- Generator: Adobe Illustrator 19.2.1, SVG Export Plug-In . SVG Version: 6.00 Build 0)  -->
<svg version="1.1" id="Calque_1" xmlns="http://www.w3.org/2000/svg" xmlns:xlink="http://www.w3.org/1999/xlink" x="0px" y="0px"
	 viewBox="0 0 1000 1000" style="enable-background:new 0 0 1000 1000;" xml:space="preserve">
<style type="text/css">
	.st0{fill:#1D1D1B;}
</style>
<path class="st0" d="M366.4,333.3L366.4,333.3l-66.7,0c-68.7,0-100-31.3-100-100s31.2-100,100-100l66.7,0c68.7,0,100,31.3,100,100
	v33.3c13.8,0,116.5,0,133.3,0c0,0,0-26.2,0-33.3C599.7,72.9,526.8,0,366.3,0c0,0-52.2,0-66.7,0C139.3,0,66.4,72.9,66.4,233.3
	c0,160.4,72.9,233.3,233.3,233.3v0l66.7,0c68.7,0,100,31.3,100,100s-31.2,100-100,100l-66.7,0c-68.7,0-100-31.3-100-100l0-33.3
	c-13.8,0-116.5,0-133.3,0c0,0,0,26.2,0,33.3c0,160.4,72.9,233.3,233.3,233.3c0,0,52.2,0,66.7,0c160.4,0,233.3-72.9,233.3-233.3
	C599.7,406.2,526.8,333.3,366.4,333.3z"/>
</svg>
