<?xml version="1.0" encoding="utf-8"?>
<!-- Generator: Adobe Illustrator 19.2.1, SVG Export Plug-In . SVG Version: 6.00 Build 0)  -->
<svg version="1.1" id="Calque_1" xmlns="http://www.w3.org/2000/svg" xmlns:xlink="http://www.w3.org/1999/xlink" x="0px" y="0px"
	 viewBox="0 0 1000 1000" style="enable-background:new 0 0 1000 1000;" xml:space="preserve">
<style type="text/css">
	.st0{fill:#1D1D1B;}
</style>
<path class="st0" d="M513,400c-55.3-40.4-127-59.4-180-70c-33.2-6.7-127.8-30-127.8-96.6c0-66.7,62.3-100,127.8-100
	c91.7,0,133.3,41.7,133.3,133.3c39.6,0,85.3,0,133.3,0C599.7,83.3,516.4,0,333,0C199.7,0,66.4,66.7,66.4,233.3
	c0,78.6,37.1,131.2,86.2,166.7c55.8,40.3,127.4,59.4,180.4,70c33.2,6.7,127.8,30,127.8,96.6c0,66.7-62.3,100-127.8,100
	c-91.7,0-133.3-41.7-133.3-133.3c-39.6,0-85.3,0-133.3,0C66.4,716.7,149.7,800,333,800c133.3,0,266.6-66.7,266.6-233.3
	C599.6,488.1,562.2,435.9,513,400z"/>
</svg>
