<?xml version="1.0" encoding="utf-8"?>
<!-- Generator: Adobe Illustrator 19.2.1, SVG Export Plug-In . SVG Version: 6.00 Build 0)  -->
<svg version="1.1" id="Calque_1" xmlns="http://www.w3.org/2000/svg" xmlns:xlink="http://www.w3.org/1999/xlink" x="0px" y="0px"
	 viewBox="0 0 1000 1000" style="enable-background:new 0 0 1000 1000;" xml:space="preserve">
<style type="text/css">
	.st0{stroke:#000000;stroke-width:0.5;stroke-miterlimit:10;}
</style>
<g>
	<g>
		<rect x="299.7" y="366.7" class="st0" width="66.7" height="66.7"/>
		<path class="st0" d="M533,266.7h-66.7V200c0-33.3-33.3-66.7-66.7-66.7H266.4c-33.3,0-66.7,33.3-66.7,66.7v66.7H133
			c-33.3,0-66.7,33.3-66.7,66.7v133.3c0,33.3,33.3,66.7,66.7,66.7h66.7V600c0,33.3,33.3,66.7,66.7,66.7h133.3
			c33.3,0,66.7-33.3,66.7-66.7v-66.7H533c33.3,0,66.7-33.3,66.7-66.7V333.3C599.7,300,566.3,266.7,533,266.7z M266.4,200h133.3v66.7
			H266.4V200z M399.7,333.3v133.3H266.4V333.3H399.7z M133,333.3h66.7v133.3H133V333.3z M399.7,600H266.4v-66.7h133.3V600z
			 M466.4,333.3H533v133.3h-66.6V333.3z"/>
	</g>
</g>
</svg>
