<?xml version="1.0" encoding="utf-8"?>
<!-- Generator: Adobe Illustrator 19.2.1, SVG Export Plug-In . SVG Version: 6.00 Build 0)  -->
<svg version="1.1" id="Calque_1" xmlns="http://www.w3.org/2000/svg" xmlns:xlink="http://www.w3.org/1999/xlink" x="0px" y="0px"
	 viewBox="0 0 1000 1000" style="enable-background:new 0 0 1000 1000;" xml:space="preserve">
<style type="text/css">
	.st0{fill:#1D1D1B;}
</style>
<g>
	<rect x="133" y="466.7" class="st0" width="333.3" height="66.7"/>
	<path class="st0" d="M533,100V50c0-25-25-50-50-50H383c-25,0-50,25-50,50v100c0,25,25,50,50,50h83.3v66.7h-66.6v-33.3H333v50
		c0,25,25,50,50,50h100c25,0,50-25,50-50v-100c0-25-25-50-50-50h-83.3V66.7h66.7V100H533z"/>
	<polygon class="st0" points="266.3,0 66.3,0 66.3,66.7 133,66.7 133,333.3 199.7,333.3 199.7,66.7 266.3,66.7 	"/>
</g>
</svg>
