<?xml version="1.0" encoding="utf-8"?>
<!-- Generator: Adobe Illustrator 19.2.1, SVG Export Plug-In . SVG Version: 6.00 Build 0)  -->
<svg version="1.1" id="Calque_1" xmlns="http://www.w3.org/2000/svg" xmlns:xlink="http://www.w3.org/1999/xlink" x="0px" y="0px"
	 viewBox="0 0 1000 1000" style="enable-background:new 0 0 1000 1000;" xml:space="preserve">
<style type="text/css">
	.st0{fill:#1D1D1B;}
</style>
<path class="st0" d="M599.7,600H466.4v66.7H266.6v-100h133.1V433.3H266.6v-66.7h133.1V233.3H266.6v-100h199.7V200h133.3V100
	c0-50-49.9-99.9-99.9-100L233.2,0c-50,0-100,50-100,100l0.1,133.3H66.4v133.3h66.9v66.7H66.4v133.3h66.9L133.2,700
	c0,50,50,100,100,100l266.7,0c50-0.1,99.9-50,99.9-100V600z"/>
</svg>
