<?xml version="1.0" encoding="utf-8"?>
<!-- Generator: Adobe Illustrator 19.2.1, SVG Export Plug-In . SVG Version: 6.00 Build 0)  -->
<svg version="1.1" xmlns="http://www.w3.org/2000/svg" xmlns:xlink="http://www.w3.org/1999/xlink" x="0px" y="0px"
	 viewBox="0 0 96 144" style="enable-background:new 0 0 96 144;" xml:space="preserve">
<style type="text/css">
	.st0{fill:#FFFFFF;stroke:#000000;stroke-width:0.25;stroke-miterlimit:10;}
	.st1{fill:#010202;}
</style>
<g id="Calque_1">
	<rect class="st0" width="12" height="12"/>
	<rect x="12" class="st0" width="12" height="12"/>
	<rect x="24" class="st0" width="12" height="12"/>
	<rect x="36" class="st0" width="12" height="12"/>
	<rect x="48" class="st0" width="12" height="12"/>
	<rect x="60" class="st0" width="12" height="12"/>
	<rect x="72" class="st0" width="12" height="12"/>
	<rect x="84" class="st0" width="12" height="12"/>
	<rect y="12" class="st0" width="12" height="12"/>
	<rect x="12" y="12" class="st0" width="12" height="12"/>
	<rect x="24" y="12" class="st0" width="12" height="12"/>
	<rect x="36" y="12" class="st0" width="12" height="12"/>
	<rect x="48" y="12" class="st0" width="12" height="12"/>
	<rect x="60" y="12" class="st0" width="12" height="12"/>
	<rect x="72" y="12" class="st0" width="12" height="12"/>
	<rect x="84" y="12" class="st0" width="12" height="12"/>
	<rect y="24" class="st0" width="12" height="12"/>
	<rect x="12" y="24" class="st0" width="12" height="12"/>
	<rect x="24" y="24" class="st0" width="12" height="12"/>
	<rect x="36" y="24" class="st0" width="12" height="12"/>
	<rect x="48" y="24" class="st0" width="12" height="12"/>
	<rect x="60" y="24" class="st0" width="12" height="12"/>
	<rect x="72" y="24" class="st0" width="12" height="12"/>
	<rect x="84" y="24" class="st0" width="12" height="12"/>
	<rect y="36" class="st0" width="12" height="12"/>
	<rect x="12" y="36" class="st0" width="12" height="12"/>
	<rect x="24" y="36" class="st0" width="12" height="12"/>
	<rect x="36" y="36" class="st0" width="12" height="12"/>
	<rect x="48" y="36" class="st0" width="12" height="12"/>
	<rect x="60" y="36" class="st0" width="12" height="12"/>
	<rect x="72" y="36" class="st0" width="12" height="12"/>
	<rect x="84" y="36" class="st0" width="12" height="12"/>
	<rect y="48" class="st0" width="12" height="12"/>
	<rect x="12" y="48" class="st0" width="12" height="12"/>
	<rect x="24" y="48" class="st0" width="12" height="12"/>
	<rect x="36" y="48" class="st0" width="12" height="12"/>
	<rect x="48" y="48" class="st0" width="12" height="12"/>
	<rect x="60" y="48" class="st0" width="12" height="12"/>
	<rect x="72" y="48" class="st0" width="12" height="12"/>
	<rect x="84" y="48" class="st0" width="12" height="12"/>
	<rect y="60" class="st0" width="12" height="12"/>
	<rect x="12" y="60" class="st0" width="12" height="12"/>
	<rect x="24" y="60" class="st0" width="12" height="12"/>
	<rect x="36" y="60" class="st0" width="12" height="12"/>
	<rect x="48" y="60" class="st0" width="12" height="12"/>
	<rect x="60" y="60" class="st0" width="12" height="12"/>
	<rect x="72" y="60" class="st0" width="12" height="12"/>
	<rect x="84" y="60" class="st0" width="12" height="12"/>
	<rect y="72" class="st0" width="12" height="12"/>
	<rect x="12" y="72" class="st0" width="12" height="12"/>
	<rect x="24" y="72" class="st0" width="12" height="12"/>
	<rect x="36" y="72" class="st0" width="12" height="12"/>
	<rect x="48" y="72" class="st0" width="12" height="12"/>
	<rect x="60" y="72" class="st0" width="12" height="12"/>
	<rect x="72" y="72" class="st0" width="12" height="12"/>
	<rect x="84" y="72" class="st0" width="12" height="12"/>
	<rect y="84" class="st0" width="12" height="12"/>
	<rect x="12" y="84" class="st0" width="12" height="12"/>
	<rect x="24" y="84" class="st0" width="12" height="12"/>
	<rect x="36" y="84" class="st0" width="12" height="12"/>
	<rect x="48" y="84" class="st0" width="12" height="12"/>
	<rect x="60" y="84" class="st0" width="12" height="12"/>
	<rect x="72" y="84" class="st0" width="12" height="12"/>
	<rect x="84" y="84" class="st0" width="12" height="12"/>
	<rect y="96" class="st0" width="12" height="12"/>
	<rect x="12" y="96" class="st0" width="12" height="12"/>
	<rect x="24" y="96" class="st0" width="12" height="12"/>
	<rect x="36" y="96" class="st0" width="12" height="12"/>
	<rect x="48" y="96" class="st0" width="12" height="12"/>
	<rect x="60" y="96" class="st0" width="12" height="12"/>
	<rect x="72" y="96" class="st0" width="12" height="12"/>
	<rect x="84" y="96" class="st0" width="12" height="12"/>
	<rect y="108" class="st0" width="12" height="12"/>
	<rect x="12" y="108" class="st0" width="12" height="12"/>
	<rect x="24" y="108" class="st0" width="12" height="12"/>
	<rect x="36" y="108" class="st0" width="12" height="12"/>
	<rect x="48" y="108" class="st0" width="12" height="12"/>
	<rect x="60" y="108" class="st0" width="12" height="12"/>
	<rect x="72" y="108" class="st0" width="12" height="12"/>
	<rect x="84" y="108" class="st0" width="12" height="12"/>
	<rect y="120" class="st0" width="12" height="12"/>
	<rect x="12" y="120" class="st0" width="12" height="12"/>
	<rect x="24" y="120" class="st0" width="12" height="12"/>
	<rect x="36" y="120" class="st0" width="12" height="12"/>
	<rect x="48" y="120" class="st0" width="12" height="12"/>
	<rect x="60" y="120" class="st0" width="12" height="12"/>
	<rect x="72" y="120" class="st0" width="12" height="12"/>
	<rect x="84" y="120" class="st0" width="12" height="12"/>
	<rect y="132" class="st0" width="12" height="12"/>
	<rect x="12" y="132" class="st0" width="12" height="12"/>
	<rect x="24" y="132" class="st0" width="12" height="12"/>
	<rect x="36" y="132" class="st0" width="12" height="12"/>
	<rect x="48" y="132" class="st0" width="12" height="12"/>
	<rect x="60" y="132" class="st0" width="12" height="12"/>
	<rect x="72" y="132" class="st0" width="12" height="12"/>
	<rect x="84" y="132" class="st0" width="12" height="12"/>
</g>
<g id="Calque_2">
	<path class="st1" d="M12,84c6,0,12-6,12-12H0v24h24C24,90,18,84,12,84z"/>
	<rect class="st1" width="24" height="24"/>
	<path class="st1" d="M0,60h6.9C15.6,59.4,24,50.7,24,42v-6H0V60z"/>
	<path d="M71.9,108L60,120H48v24c0,0,16.3,0,18,0c6.6,0,10-4,12.5-6.5c2-2.1,8.9-9,11-11C92,124,96,120.6,96,114c0-0.9,0-18,0-18H72
		L71.9,108z"/>
	<path d="M54,24c12.4,0,18,5.6,18,18v6h24v-6C96,13.1,82.9,0,54,0l-6,0v24H54z"/>
	<path d="M0,108L0,108l0,12h12C12,114,6,108,0,108z"/>
</g>
</svg>
